<?xml version="1.0" encoding="UTF-8"?>
<svg xmlns="http://www.w3.org/2000/svg" xmlns:xlink="http://www.w3.org/1999/xlink" viewBox="0 0 1920 1080">
  <defs>
    <style>
      .cls-1 {
        fill: #fff;
      }

      .cls-2 {
        fill: url(#linear-gradient-5);
      }

      .cls-3 {
        fill: url(#linear-gradient-6);
      }

      .cls-4 {
        fill: url(#linear-gradient);
      }

      .cls-5 {
        fill: url(#linear-gradient-7);
      }

      .cls-6 {
        fill: #8ec1d1;
      }

      .cls-7 {
        opacity: .2;
      }

      .cls-8 {
        fill: url(#linear-gradient-2);
      }

      .cls-9 {
        fill: url(#radial-gradient);
      }

      .cls-10 {
        fill: url(#linear-gradient-4);
      }

      .cls-11 {
        fill: url(#linear-gradient-3);
      }

      .cls-12 {
        fill: #3872db;
      }
    </style>
    <linearGradient id="linear-gradient" x1="952.08" y1="2.15" x2="960.97" y2="1084.87" gradientTransform="matrix(1, 0, 0, 1, 0, 0)" gradientUnits="userSpaceOnUse">
      <stop offset="0" stop-color="#6f8c78"/>
      <stop offset="1" stop-color="#fff"/>
    </linearGradient>
    <radialGradient id="radial-gradient" cx="1466.5" cy="386.5" fx="1466.5" fy="386.5" r="419.14" gradientTransform="matrix(1, 0, 0, 1, 0, 0)" gradientUnits="userSpaceOnUse">
      <stop offset="0" stop-color="#6f8c78"/>
      <stop offset=".09" stop-color="#91a798" stop-opacity=".76"/>
      <stop offset=".19" stop-color="#b3c2b7" stop-opacity=".53"/>
      <stop offset=".31" stop-color="#ced8d1" stop-opacity=".33"/>
      <stop offset=".43" stop-color="#e4e9e5" stop-opacity=".19"/>
      <stop offset=".57" stop-color="#f3f5f4" stop-opacity=".08"/>
      <stop offset=".74" stop-color="#fcfcfc" stop-opacity=".02"/>
      <stop offset="1" stop-color="#fff" stop-opacity="0"/>
    </radialGradient>
    <linearGradient id="linear-gradient-2" x1="954.28" y1="753.93" x2="958.66" y2="1071.47" gradientTransform="matrix(1, 0, 0, 1, 0, 0)" gradientUnits="userSpaceOnUse">
      <stop offset="0" stop-color="#3881db"/>
      <stop offset=".1" stop-color="#3d84dc" stop-opacity=".97"/>
      <stop offset=".24" stop-color="#4d8ede" stop-opacity=".89"/>
      <stop offset=".4" stop-color="#679fe3" stop-opacity=".76"/>
      <stop offset=".58" stop-color="#8cb6ea" stop-opacity=".58"/>
      <stop offset=".77" stop-color="#bbd4f2" stop-opacity=".34"/>
      <stop offset=".96" stop-color="#f4f8fd" stop-opacity=".05"/>
      <stop offset="1" stop-color="#fff" stop-opacity="0"/>
    </linearGradient>
    <linearGradient id="linear-gradient-3" x1="953.96" y1="679.96" x2="959.29" y2="1066.71" xlink:href="#linear-gradient-2"/>
    <linearGradient id="linear-gradient-4" x1="956.37" y1="789.18" x2="960.3" y2="1073.71" xlink:href="#linear-gradient-2"/>
    <linearGradient id="linear-gradient-5" x1="954.75" y1="895.83" x2="957.31" y2="1081.47" xlink:href="#linear-gradient-2"/>
    <linearGradient id="linear-gradient-6" x1="1121.24" y1="1077.17" x2="1121.28" y2="1080.17" xlink:href="#linear-gradient-2"/>
    <linearGradient id="linear-gradient-7" x1="955.12" y1="854.23" x2="958.2" y2="1077.92" xlink:href="#linear-gradient-2"/>
  </defs>
  <g id="Layer_4" data-name="Layer 4"/>
  <g id="Snow"/>
  <g id="Rainy">
    <g id="Background">
      <rect class="cls-4" x="-7" width="1927" height="1080"/>
    </g>
    <g id="Drops" class="cls-7">
      <text/>
      <g id="Drop">
        <g id="Drop-2" data-name="Drop">
          <path class="cls-6" d="M674.46,334.81c-2.88,4.96-5.56,7.91-8.33,11.15-9.81,11.46-14.66,17.21-16.67,22.31-3.06,7.79-4.49,21.73,3.58,29.63,9.14,8.95,26.08,5.85,32.83-3.18,3.47-4.64,6.46-14.13,5-28.72-1.19-11.89-6.12-24.57-10.69-44.49-.98,3.3-2.69,8.09-5.72,13.31Z"/>
        </g>
        <path class="cls-1" d="M662.86,396.32c1.59,.25,3.98,.44,6.82-.09,1.9-.35,5.47-1.05,8.98-4.02,.73-.62,4.18-3.64,5.89-9,1.34-4.2,.94-7.75,.66-10.05-.32-2.59-.96-4.68-1.49-6.12-1.78,4.37-4.49,9.91-8.6,15.74-4.26,6.03-8.69,10.46-12.25,13.55Z"/>
      </g>
      <g id="Drop-3" data-name="Drop">
        <g id="Drop-4" data-name="Drop">
          <path class="cls-6" d="M636.51,588.82c-1.3,5.05-2.93,8.28-4.58,11.8-5.81,12.44-8.66,18.66-9.15,23.61-.75,7.55,1.49,20.06,10.64,24.92,10.35,5.51,24.59-1.43,28.3-10.99,1.9-4.91,2.17-13.93-2.8-26.28-4.05-10.06-11.62-19.88-20.69-36.09-.04,3.12-.35,7.72-1.71,13.03Z"/>
        </g>
        <path class="cls-1" d="M641.73,645.32c1.47-.18,3.64-.62,6.03-1.78,1.6-.78,4.58-2.29,6.94-5.75,.49-.72,2.79-4.22,2.95-9.32,.13-4-1.12-6.99-1.95-8.93-.94-2.18-2.03-3.84-2.87-4.96-.48,4.25-1.48,9.76-3.66,15.86-2.26,6.32-5.07,11.29-7.44,14.87Z"/>
      </g>
      <g id="Drop-5" data-name="Drop">
        <g id="Drop-6" data-name="Drop">
          <path class="cls-6" d="M780.3,464.36c-1.45,6.2-3.32,10.18-5.21,14.52-6.66,15.31-9.92,22.97-10.42,29.03-.75,9.26,2.15,24.56,13.08,30.41,12.39,6.63,29.14-2.04,33.36-13.8,2.17-6.03,2.31-17.09-3.82-32.16-4.99-12.28-14.15-24.22-25.21-43.98,.01,3.83-.27,9.46-1.79,15.98Z"/>
        </g>
        <path class="cls-1" d="M787.55,533.52c1.74-.24,4.31-.8,7.12-2.25,1.88-.97,5.39-2.85,8.13-7.12,.57-.89,3.23-5.2,3.33-11.45,.08-4.9-1.46-8.55-2.48-10.91-1.15-2.66-2.48-4.68-3.49-6.04-.49,5.22-1.57,11.97-4.05,19.48-2.56,7.78-5.8,13.9-8.55,18.31Z"/>
      </g>
      <g id="Drop-7" data-name="Drop">
        <g id="Drop-8" data-name="Drop">
          <path class="cls-6" d="M930.3,471.36c-1.45,6.2-3.32,10.18-5.21,14.52-6.66,15.31-9.92,22.97-10.42,29.03-.75,9.26,2.15,24.56,13.08,30.41,12.39,6.63,29.14-2.04,33.36-13.8,2.17-6.03,2.31-17.09-3.82-32.16-4.99-12.28-14.15-24.22-25.21-43.98,.01,3.83-.27,9.46-1.79,15.98Z"/>
        </g>
        <path class="cls-1" d="M937.55,540.52c1.74-.24,4.31-.8,7.12-2.25,1.88-.97,5.39-2.85,8.13-7.12,.57-.89,3.23-5.2,3.33-11.45,.08-4.9-1.46-8.55-2.48-10.91-1.15-2.66-2.48-4.68-3.49-6.04-.49,5.22-1.57,11.97-4.05,19.48-2.56,7.78-5.8,13.9-8.55,18.31Z"/>
      </g>
      <g id="Drop-9" data-name="Drop">
        <g id="Drop-10" data-name="Drop">
          <path class="cls-6" d="M948.12,348.31c-2.69,4.94-5.23,7.9-7.87,11.16-9.31,11.5-13.91,17.27-15.73,22.32-2.78,7.71-3.78,21.41,4.38,28.93,9.24,8.51,25.8,5,32.17-4.04,3.27-4.64,5.94-14.02,4.08-28.28-1.51-11.62-6.73-23.9-11.8-43.29-.87,3.26-2.41,8-5.23,13.2Z"/>
        </g>
        <path class="cls-1" d="M938.51,408.89c1.57,.2,3.93,.32,6.7-.27,1.86-.4,5.34-1.18,8.7-4.19,.7-.62,4-3.68,5.53-8.99,1.19-4.15,.7-7.62,.35-9.87-.39-2.53-1.08-4.56-1.65-5.95-1.62,4.33-4.12,9.83-8,15.66-4.02,6.03-8.24,10.49-11.64,13.62Z"/>
      </g>
      <g id="Drop-11" data-name="Drop">
        <g id="Drop-12" data-name="Drop">
          <path class="cls-6" d="M901.43,601.64c-.99,5.24-2.43,8.65-3.87,12.35-5.08,13.08-7.57,19.62-7.74,24.7-.27,7.76,2.85,20.38,12.47,24.75,10.9,4.95,24.91-3.07,28.05-13.07,1.61-5.13,1.28-14.36-4.59-26.64-4.79-10.01-13.13-19.54-23.43-35.49,.17,3.19,.16,7.9-.88,13.41Z"/>
        </g>
        <path class="cls-1" d="M910.48,658.98c1.49-.28,3.66-.87,6.01-2.21,1.57-.9,4.51-2.63,6.68-6.32,.45-.77,2.56-4.49,2.38-9.71-.14-4.09-1.6-7.06-2.58-8.98-1.1-2.16-2.32-3.79-3.24-4.88-.2,4.37-.86,10.06-2.67,16.43-1.88,6.6-4.4,11.86-6.58,15.67Z"/>
      </g>
      <g id="Drop-13" data-name="Drop">
        <g id="Drop-14" data-name="Drop">
          <path class="cls-6" d="M1053.64,484.93c-1.52,4.47-3.22,7.28-4.96,10.35-6.13,10.85-9.14,16.28-9.91,20.7-1.18,6.76,.09,18.17,8.17,23.12,9.15,5.61,22.66,.25,26.68-8.14,2.06-4.3,2.88-12.42-.89-23.86-3.07-9.32-9.39-18.64-16.68-33.82-.23,2.81-.81,6.94-2.41,11.63Z"/>
        </g>
        <path class="cls-1" d="M1054.82,536.17c1.36-.07,3.38-.33,5.65-1.23,1.52-.6,4.35-1.77,6.74-4.75,.5-.62,2.83-3.63,3.31-8.21,.37-3.59-.58-6.37-1.22-8.17-.72-2.02-1.61-3.58-2.31-4.65-.71,3.8-1.98,8.7-4.38,14.07-2.48,5.56-5.37,9.86-7.78,12.94Z"/>
      </g>
      <g id="Drop-15" data-name="Drop">
        <g id="Drop-16" data-name="Drop">
          <path class="cls-6" d="M1172.44,363.63c-1.07,5.2-2.56,8.58-4.05,12.25-5.27,12.95-7.85,19.43-8.1,24.49-.39,7.73,2.52,20.35,12.05,24.85,10.79,5.09,24.88-2.67,28.16-12.59,1.69-5.09,1.5-14.29-4.17-26.62-4.62-10.04-12.79-19.67-22.81-35.72,.12,3.18,.04,7.88-1.09,13.35Z"/>
        </g>
        <path class="cls-1" d="M1180.58,420.9c1.49-.26,3.66-.81,6.03-2.11,1.58-.87,4.54-2.55,6.76-6.2,.46-.76,2.62-4.43,2.53-9.64-.07-4.07-1.49-7.06-2.43-8.99-1.06-2.17-2.25-3.81-3.16-4.91-.27,4.35-1.01,10.01-2.92,16.33-1.97,6.55-4.57,11.75-6.81,15.51Z"/>
      </g>
      <g id="Drop-17" data-name="Drop">
        <g id="Drop-18" data-name="Drop">
          <path class="cls-6" d="M1144.71,610.04c-1.05,6.23-2.66,10.29-4.26,14.71-5.65,15.58-8.41,23.38-8.53,29.41-.17,9.22,3.66,24.19,14.87,29.31,12.7,5.79,28.77-3.84,32.23-15.75,1.77-6.11,1.23-17.08-5.78-31.62-5.72-11.85-15.54-23.11-27.74-41.99,.25,3.79,.32,9.39-.78,15.94Z"/>
        </g>
        <path class="cls-1" d="M1156.2,678.11c1.72-.34,4.22-1.06,6.92-2.68,1.8-1.08,5.17-3.16,7.62-7.57,.51-.91,2.88-5.35,2.59-11.55-.23-4.86-1.98-8.38-3.14-10.66-1.31-2.56-2.75-4.48-3.84-5.77-.16,5.2-.82,11.96-2.8,19.55-2.06,7.86-4.89,14.13-7.34,18.67Z"/>
      </g>
      <g id="Drop-19" data-name="Drop">
        <g id="Drop-20" data-name="Drop">
          <path class="cls-6" d="M1329.92,495.03c-.63,5.54-1.86,9.21-3.07,13.19-4.27,14.04-6.35,21.06-6.14,26.38,.32,8.13,4.51,21.08,14.82,24.94,11.68,4.37,25.6-5.03,28.09-15.72,1.28-5.48,.23-15.1-6.8-27.5-5.73-10.11-15.11-19.45-27.01-35.37,.42,3.32,.77,8.25,.11,14.08Z"/>
        </g>
        <path class="cls-1" d="M1343.69,554.28c1.52-.4,3.73-1.18,6.07-2.75,1.56-1.06,4.47-3.08,6.44-7.1,.41-.83,2.31-4.88,1.73-10.32-.45-4.26-2.2-7.26-3.36-9.2-1.3-2.18-2.69-3.79-3.74-4.86,.13,4.58-.12,10.57-1.51,17.37-1.44,7.04-3.66,12.72-5.63,16.86Z"/>
      </g>
      <g id="Drop-21" data-name="Drop">
        <g id="Drop-22" data-name="Drop">
          <path class="cls-6" d="M1452.1,378.84c-1.02,4.73-2.42,7.8-3.82,11.13-4.95,11.77-7.38,17.66-7.65,22.26-.41,7.03,2.2,18.52,10.98,22.63,9.94,4.66,23.03-2.37,26.13-11.38,1.59-4.63,1.48-12.99-3.68-24.22-4.2-9.15-11.7-17.92-20.86-32.56,.09,2.89-.02,7.17-1.09,12.14Z"/>
        </g>
        <path class="cls-1" d="M1459.26,430.96c1.38-.23,3.39-.73,5.59-1.91,1.47-.79,4.21-2.31,6.29-5.62,.43-.69,2.45-4.03,2.4-8.76-.04-3.71-1.33-6.43-2.19-8.18-.97-1.98-2.06-3.47-2.89-4.47-.28,3.96-1,9.1-2.8,14.85-1.87,5.95-4.31,10.68-6.39,14.09Z"/>
      </g>
      <g id="Drop-23" data-name="Drop">
        <g id="Drop-24" data-name="Drop">
          <path class="cls-6" d="M1431.65,620.68c-2.35,6.15-4.82,9.97-7.35,14.16-8.94,14.77-13.34,22.16-14.7,28.31-2.07,9.39-1.25,25.49,9.09,33.02,11.71,8.53,30.02,2,35.98-9.47,3.06-5.88,4.75-17.2,.61-33.52-3.37-13.3-11.04-26.83-19.57-48.64-.52,3.93-1.6,9.67-4.07,16.14Z"/>
        </g>
        <path class="cls-1" d="M1429.35,692.63c1.81,0,4.51-.21,7.58-1.31,2.05-.74,5.9-2.17,9.29-6.17,.7-.83,4.03-4.88,5-11.28,.76-5.01-.29-8.97-1-11.54-.8-2.89-1.87-5.15-2.72-6.69-1.23,5.28-3.28,12.06-6.86,19.41-3.7,7.61-7.86,13.44-11.29,17.58Z"/>
      </g>
      <g id="Drop-25" data-name="Drop">
        <g id="Drop-26" data-name="Drop">
          <path class="cls-6" d="M1501.65,524.68c-2.35,6.15-4.82,9.97-7.35,14.16-8.94,14.77-13.34,22.16-14.7,28.31-2.07,9.39-1.25,25.49,9.09,33.02,11.71,8.53,30.02,2,35.98-9.47,3.06-5.88,4.75-17.2,.61-33.52-3.37-13.3-11.04-26.83-19.57-48.64-.52,3.93-1.6,9.67-4.07,16.14Z"/>
        </g>
        <path class="cls-1" d="M1499.35,596.63c1.81,0,4.51-.21,7.58-1.31,2.05-.74,5.9-2.17,9.29-6.17,.7-.83,4.03-4.88,5-11.28,.76-5.01-.29-8.97-1-11.54-.8-2.89-1.87-5.15-2.72-6.69-1.23,5.28-3.28,12.06-6.86,19.41-3.7,7.61-7.86,13.44-11.29,17.58Z"/>
      </g>
      <g id="Drop-27" data-name="Drop">
        <g id="Drop-28" data-name="Drop">
          <path class="cls-6" d="M1592.77,504.28c-.68,6.35-2.05,10.55-3.38,15.11-4.73,16.07-7.03,24.11-6.77,30.21,.4,9.32,5.18,24.2,16.8,28.67,13.15,5.07,28.76-5.64,31.5-17.88,1.41-6.28,.18-17.31-7.79-31.57-6.49-11.62-17.09-22.38-30.56-40.69,.49,3.81,.91,9.46,.2,16.14Z"/>
        </g>
        <path class="cls-1" d="M1608.57,572.28c1.71-.45,4.19-1.33,6.81-3.13,1.75-1.2,5.02-3.51,7.21-8.1,.46-.95,2.57-5.58,1.89-11.82-.53-4.89-2.51-8.34-3.82-10.56-1.48-2.51-3.05-4.35-4.23-5.59,.16,5.26-.08,12.12-1.61,19.91-1.59,8.06-4.05,14.56-6.24,19.3Z"/>
      </g>
      <g id="Drop-29" data-name="Drop">
        <g id="Drop-30" data-name="Drop">
          <path class="cls-6" d="M1579.77,313.28c-.68,6.35-2.05,10.55-3.38,15.11-4.73,16.07-7.03,24.11-6.77,30.21,.4,9.32,5.18,24.2,16.8,28.67,13.15,5.07,28.76-5.64,31.5-17.88,1.41-6.28,.18-17.31-7.79-31.57-6.49-11.62-17.09-22.38-30.56-40.69,.49,3.81,.91,9.46,.2,16.14Z"/>
        </g>
        <path class="cls-1" d="M1595.57,381.28c1.71-.45,4.19-1.33,6.81-3.13,1.75-1.2,5.02-3.51,7.21-8.1,.46-.95,2.57-5.58,1.89-11.82-.53-4.89-2.51-8.34-3.82-10.56-1.48-2.51-3.05-4.35-4.23-5.59,.16,5.26-.08,12.12-1.61,19.91-1.59,8.06-4.05,14.56-6.24,19.3Z"/>
      </g>
      <g id="Drop-31" data-name="Drop">
        <g id="Drop-32" data-name="Drop">
          <path class="cls-6" d="M1729.58,611.19c-2.03,6.19-4.28,10.08-6.59,14.34-8.13,15.02-12.13,22.54-13.17,28.68-1.59,9.38,0,25.23,10.59,32.18,12,7.86,29.8,.52,35.13-11.09,2.74-5.96,3.87-17.22-1.02-33.14-3.98-12.97-12.22-25.97-21.71-47.1-.33,3.9-1.11,9.63-3.24,16.14Z"/>
        </g>
        <path class="cls-1" d="M1730.79,682.36c1.79-.09,4.45-.43,7.43-1.66,2-.83,5.73-2.43,8.9-6.54,.66-.85,3.75-5.01,4.4-11.38,.51-4.99-.72-8.85-1.55-11.35-.93-2.82-2.1-4.99-3.01-6.47-.96,5.28-2.67,12.07-5.85,19.5-3.3,7.7-7.13,13.65-10.32,17.91Z"/>
      </g>
      <g id="Drop-33" data-name="Drop">
        <g id="Drop-34" data-name="Drop">
          <path class="cls-6" d="M1827.58,548.19c-2.03,6.19-4.28,10.08-6.59,14.34-8.13,15.02-12.13,22.54-13.17,28.68-1.59,9.38,0,25.23,10.59,32.18,12,7.86,29.8,.52,35.13-11.09,2.74-5.96,3.87-17.22-1.02-33.14-3.98-12.97-12.22-25.97-21.71-47.1-.33,3.9-1.11,9.63-3.24,16.14Z"/>
        </g>
        <path class="cls-1" d="M1828.79,619.36c1.79-.09,4.45-.43,7.43-1.66,2-.83,5.73-2.43,8.9-6.54,.66-.85,3.75-5.01,4.4-11.38,.51-4.99-.72-8.85-1.55-11.35-.93-2.82-2.1-4.99-3.01-6.47-.96,5.28-2.67,12.07-5.85,19.5-3.3,7.7-7.13,13.65-10.32,17.91Z"/>
      </g>
      <g id="Drop-35" data-name="Drop">
        <g id="Drop-36" data-name="Drop">
          <path class="cls-6" d="M1743.31,386.9c-1.06,5.81-2.63,9.6-4.19,13.71-5.51,14.51-8.2,21.77-8.37,27.41-.26,8.61,3.18,22.64,13.7,27.51,11.92,5.52,27.2-3.35,30.59-14.45,1.74-5.7,1.35-15.95-5.11-29.6-5.26-11.12-14.41-21.72-25.71-39.47,.2,3.54,.2,8.78-.92,14.89Z"/>
        </g>
        <path class="cls-1" d="M1753.39,450.59c1.62-.31,4-.96,6.56-2.45,1.71-1,4.92-2.91,7.27-7.01,.49-.85,2.78-4.98,2.57-10.78-.16-4.54-1.77-7.85-2.84-9.98-1.2-2.41-2.54-4.21-3.56-5.42-.21,4.86-.9,11.17-2.86,18.25-2.03,7.33-4.77,13.16-7.14,17.39Z"/>
      </g>
      <text/>
      <g id="Drop-37" data-name="Drop">
        <g id="Drop-38" data-name="Drop">
          <path class="cls-6" d="M731.33,675.94c-2.06,4.65-4.15,7.5-6.3,10.63-7.59,11.05-11.33,16.58-12.59,21.26-1.93,7.15-1.74,19.54,6.32,25.67,9.13,6.94,23.99,2.53,29.09-6.08,2.62-4.42,4.31-13.06,1.46-25.73-2.32-10.32-8.07-20.97-14.26-38.01-.53,3-1.56,7.37-3.73,12.26Z"/>
        </g>
        <path class="cls-1" d="M727.41,731.13c1.45,.06,3.62-.01,6.11-.76,1.67-.5,4.79-1.47,7.62-4.43,.59-.61,3.37-3.62,4.33-8.5,.76-3.82,.03-6.9-.47-8.9-.56-2.25-1.35-4.01-1.98-5.23-1.14,4.02-2.98,9.15-6.06,14.68-3.19,5.73-6.69,10.06-9.55,13.13Z"/>
      </g>
      <g id="Drop-39" data-name="Drop">
        <g id="Drop-40" data-name="Drop">
          <path class="cls-6" d="M679.33,791.94c-2.06,4.65-4.15,7.5-6.3,10.63-7.59,11.05-11.33,16.58-12.59,21.26-1.93,7.15-1.74,19.54,6.32,25.67,9.13,6.94,23.99,2.53,29.09-6.08,2.62-4.42,4.31-13.06,1.46-25.73-2.32-10.32-8.07-20.97-14.26-38.01-.53,3-1.56,7.37-3.73,12.26Z"/>
        </g>
        <path class="cls-1" d="M675.41,847.13c1.45,.06,3.62-.01,6.11-.76,1.67-.5,4.79-1.47,7.62-4.43,.59-.61,3.37-3.62,4.33-8.5,.76-3.82,.03-6.9-.47-8.9-.56-2.25-1.35-4.01-1.98-5.23-1.14,4.02-2.98,9.15-6.06,14.68-3.19,5.73-6.69,10.06-9.55,13.13Z"/>
      </g>
      <g id="Drop-41" data-name="Drop">
        <g id="Drop-42" data-name="Drop">
          <path class="cls-6" d="M711.7,926.89c-.79,5.28-2.1,8.75-3.39,12.51-4.57,13.29-6.81,19.93-6.79,25.02,.04,7.77,3.64,20.28,13.44,24.28,11.09,4.53,24.8-4.03,27.55-14.17,1.41-5.2,.72-14.42-5.63-26.49-5.18-9.83-13.9-19.04-24.82-34.61,.29,3.19,.47,7.9-.36,13.45Z"/>
        </g>
        <path class="cls-1" d="M722.99,983.92c1.48-.34,3.63-1.01,5.93-2.45,1.54-.96,4.41-2.81,6.44-6.59,.42-.78,2.39-4.59,2.01-9.81-.29-4.09-1.88-7.01-2.93-8.89-1.18-2.12-2.46-3.7-3.44-4.75-.03,4.38-.47,10.1-2.03,16.55-1.62,6.68-3.94,12.04-5.98,15.94Z"/>
      </g>
      <g id="Drop-43" data-name="Drop">
        <g id="Drop-44" data-name="Drop">
          <path class="cls-6" d="M873.02,812.22c-1.42,4-2.99,6.51-4.6,9.26-5.68,9.7-8.47,14.56-9.2,18.52-1.11,6.06-.02,16.3,7.36,20.79,8.36,5.08,20.77,.34,24.5-7.16,1.91-3.85,2.71-11.13-.69-21.41-2.77-8.38-8.51-16.77-15.11-30.43-.23,2.52-.78,6.22-2.27,10.42Z"/>
        </g>
        <path class="cls-1" d="M873.82,858.2c1.25-.06,3.1-.28,5.18-1.07,1.39-.53,4-1.57,6.21-4.22,.46-.55,2.62-3.24,3.08-7.35,.36-3.22-.5-5.72-1.07-7.33-.65-1.82-1.46-3.22-2.1-4.18-.67,3.41-1.86,7.8-4.09,12.6-2.3,4.97-4.98,8.82-7.21,11.57Z"/>
      </g>
      <g id="Drop-45" data-name="Drop">
        <g id="Drop-46" data-name="Drop">
          <path class="cls-6" d="M1018.28,689.09c-1.12,5.07-2.63,8.35-4.14,11.92-5.35,12.6-7.97,18.9-8.29,23.85-.48,7.55,2.2,19.93,11.49,24.45,10.52,5.12,24.46-2.3,27.82-11.95,1.72-4.96,1.67-13.95-3.73-26.08-4.39-9.88-12.28-19.4-21.9-35.23,.07,3.11-.07,7.7-1.25,13.04Z"/>
        </g>
        <path class="cls-1" d="M1025.49,745.2c1.46-.23,3.61-.74,5.94-1.99,1.56-.83,4.49-2.44,6.72-5.97,.46-.73,2.63-4.3,2.61-9.39-.01-3.99-1.36-6.92-2.26-8.82-1.01-2.14-2.16-3.75-3.03-4.84-.32,4.25-1.13,9.77-3.09,15.94-2.03,6.38-4.65,11.43-6.89,15.08Z"/>
      </g>
      <g id="Drop-47" data-name="Drop">
        <g id="Drop-48" data-name="Drop">
          <path class="cls-6" d="M1671.3,197.36c-1.45,6.2-3.32,10.18-5.21,14.52-6.66,15.31-9.92,22.97-10.42,29.03-.75,9.26,2.15,24.56,13.08,30.41,12.39,6.63,29.14-2.04,33.36-13.8,2.17-6.03,2.31-17.09-3.82-32.16-4.99-12.28-14.15-24.22-25.21-43.98,.01,3.83-.27,9.46-1.79,15.98Z"/>
        </g>
        <path class="cls-1" d="M1678.55,266.52c1.74-.24,4.31-.8,7.12-2.25,1.88-.97,5.39-2.85,8.13-7.12,.57-.89,3.23-5.2,3.33-11.45,.08-4.9-1.46-8.55-2.48-10.91-1.15-2.66-2.48-4.68-3.49-6.04-.49,5.22-1.57,11.97-4.05,19.48-2.56,7.78-5.8,13.9-8.55,18.31Z"/>
      </g>
      <g id="Drop-49" data-name="Drop">
        <g id="Drop-50" data-name="Drop">
          <path class="cls-6" d="M1334.43,309.64c-.99,5.24-2.43,8.65-3.87,12.35-5.08,13.08-7.57,19.62-7.74,24.7-.27,7.76,2.85,20.38,12.47,24.75,10.9,4.95,24.91-3.07,28.05-13.07,1.61-5.13,1.28-14.36-4.59-26.64-4.79-10.01-13.13-19.54-23.43-35.49,.17,3.19,.16,7.9-.88,13.41Z"/>
        </g>
        <path class="cls-1" d="M1343.48,366.98c1.49-.28,3.66-.87,6.01-2.21,1.57-.9,4.51-2.63,6.68-6.32,.45-.77,2.56-4.49,2.38-9.71-.14-4.09-1.6-7.06-2.58-8.98-1.1-2.16-2.32-3.79-3.24-4.88-.2,4.37-.86,10.06-2.67,16.43-1.88,6.6-4.4,11.86-6.58,15.67Z"/>
      </g>
      <g id="Drop-51" data-name="Drop">
        <g id="Drop-52" data-name="Drop">
          <path class="cls-6" d="M1818.71,313.04c-1.05,6.23-2.66,10.29-4.26,14.71-5.65,15.58-8.41,23.38-8.53,29.41-.17,9.22,3.66,24.19,14.87,29.31,12.7,5.79,28.77-3.84,32.23-15.75,1.77-6.11,1.23-17.08-5.78-31.62-5.72-11.85-15.54-23.11-27.74-41.99,.25,3.79,.32,9.39-.78,15.94Z"/>
        </g>
        <path class="cls-1" d="M1830.2,381.11c1.72-.34,4.22-1.06,6.92-2.68,1.8-1.08,5.17-3.16,7.62-7.57,.51-.91,2.88-5.35,2.59-11.55-.23-4.86-1.98-8.38-3.14-10.66-1.31-2.56-2.75-4.48-3.84-5.77-.16,5.2-.82,11.96-2.8,19.55-2.06,7.86-4.89,14.13-7.34,18.67Z"/>
      </g>
      <g id="Drop-53" data-name="Drop">
        <g id="Drop-54" data-name="Drop">
          <path class="cls-6" d="M962.08,944.22c-1.67,3.87-3.4,6.26-5.17,8.88-6.27,9.24-9.36,13.88-10.34,17.76-1.5,5.93-1.08,16.16,5.95,21.09,7.97,5.58,20.6,1.69,24.79-5.5,2.15-3.69,3.41-10.85,.71-21.26-2.2-8.49-7.35-17.18-13.01-31.15-.39,2.48-1.18,6.11-2.93,10.18Z"/>
        </g>
        <path class="cls-1" d="M959.88,989.85c1.25,.03,3.1-.07,5.22-.73,1.42-.44,4.07-1.29,6.44-3.78,.49-.52,2.81-3.04,3.53-7.09,.57-3.17-.12-5.7-.59-7.34-.53-1.85-1.24-3.29-1.81-4.28-.89,3.33-2.36,7.61-4.88,12.22-2.61,4.78-5.52,8.42-7.91,10.99Z"/>
      </g>
      <g id="Drop-55" data-name="Drop">
        <g id="Drop-56" data-name="Drop">
          <path class="cls-6" d="M1128.96,825.03c-.64,4.43-1.74,7.35-2.83,10.52-3.85,11.19-5.73,16.79-5.67,21.04,.09,6.5,3.29,16.9,11.77,20.07,9.6,3.59,21.36-3.82,23.66-12.34,1.18-4.37,.52-12.07-5.05-22.05-4.54-8.13-12.13-15.68-21.66-28.5,.28,2.66,.46,6.6-.21,11.26Z"/>
        </g>
        <path class="cls-1" d="M1139.12,872.52c1.27-.31,3.12-.91,5.1-2.15,1.32-.83,3.78-2.43,5.5-5.62,.36-.66,2.02-3.88,1.66-8.24-.28-3.41-1.67-5.82-2.59-7.38-1.03-1.75-2.15-3.05-3-3.91,0,3.67-.33,8.45-1.63,13.88-1.35,5.62-3.31,10.14-5.04,13.43Z"/>
      </g>
      <g id="Drop-57" data-name="Drop">
        <g id="Drop-58" data-name="Drop">
          <path class="cls-6" d="M1261.7,701.59c-1.14,5.18-2.68,8.52-4.22,12.16-5.44,12.85-8.11,19.28-8.44,24.32-.5,7.7,2.23,20.34,11.67,24.97,10.69,5.24,24.87-2.31,28.29-12.16,1.76-5.06,1.7-14.24-3.77-26.62-4.46-10.09-12.48-19.81-22.25-35.98,.07,3.18-.08,7.86-1.28,13.3Z"/>
        </g>
        <path class="cls-1" d="M1269,758.85c1.49-.23,3.67-.75,6.05-2.02,1.59-.85,4.56-2.48,6.83-6.09,.47-.75,2.68-4.39,2.66-9.58-.01-4.07-1.38-7.07-2.3-9.01-1.03-2.18-2.19-3.83-3.08-4.94-.33,4.34-1.15,9.97-3.15,16.26-2.07,6.51-4.73,11.66-7.02,15.38Z"/>
      </g>
      <g id="Drop-59" data-name="Drop">
        <g id="Drop-60" data-name="Drop">
          <path class="cls-6" d="M1299.7,604.59c-1.14,5.18-2.68,8.52-4.22,12.16-5.44,12.85-8.11,19.28-8.44,24.32-.5,7.7,2.23,20.34,11.67,24.97,10.69,5.24,24.87-2.31,28.29-12.16,1.76-5.06,1.7-14.24-3.77-26.62-4.46-10.09-12.48-19.81-22.25-35.98,.07,3.18-.08,7.86-1.28,13.3Z"/>
        </g>
        <path class="cls-1" d="M1307,661.85c1.49-.23,3.67-.75,6.05-2.02,1.59-.85,4.56-2.48,6.83-6.09,.47-.75,2.68-4.39,2.66-9.58-.01-4.07-1.38-7.07-2.3-9.01-1.03-2.18-2.19-3.83-3.08-4.94-.33,4.34-1.15,9.97-3.15,16.26-2.07,6.51-4.73,11.66-7.02,15.38Z"/>
      </g>
      <g id="Drop-61" data-name="Drop">
        <g id="Drop-62" data-name="Drop">
          <path class="cls-6" d="M1248.5,957.03c-2.03,3.73-3.98,5.97-6,8.43-7.13,8.69-10.65,13.06-12,16.86-2.05,5.81-2.58,16.11,4.01,21.7,7.46,6.33,20.47,3.6,25.33-3.23,2.49-3.5,4.42-10.57,2.68-21.26-1.42-8.71-5.77-17.91-10.15-32.44-.62,2.46-1.75,6.02-3.88,9.94Z"/>
        </g>
        <path class="cls-1" d="M1242.07,1002.59c1.24,.14,3.11,.21,5.29-.25,1.46-.31,4.2-.92,6.79-3.2,.54-.47,3.09-2.79,4.19-6.78,.86-3.13,.41-5.73,.09-7.41-.36-1.9-.94-3.42-1.41-4.46-1.2,3.26-3.07,7.41-6.02,11.81-3.06,4.55-6.3,7.93-8.94,10.3Z"/>
      </g>
      <g id="Drop-63" data-name="Drop">
        <g id="Drop-64" data-name="Drop">
          <path class="cls-6" d="M1402.11,829.92c-2.78,5.22-5.42,8.35-8.15,11.79-9.65,12.16-14.42,18.26-16.3,23.58-2.87,8.13-3.84,22.53,4.71,30.37,9.68,8.87,26.93,5.06,33.53-4.49,3.39-4.9,6.13-14.78,4.11-29.75-1.64-12.2-7.13-25.07-12.52-45.4-.89,3.44-2.47,8.42-5.39,13.91Z"/>
        </g>
        <path class="cls-1" d="M1392.39,893.67c1.64,.2,4.1,.3,6.99-.34,1.94-.43,5.57-1.29,9.06-4.47,.72-.66,4.16-3.9,5.72-9.49,1.22-4.37,.69-8.01,.32-10.37-.42-2.66-1.14-4.78-1.75-6.25-1.67,4.56-4.25,10.37-8.26,16.52-4.16,6.37-8.54,11.09-12.08,14.4Z"/>
      </g>
      <g id="Drop-65" data-name="Drop">
        <g id="Drop-66" data-name="Drop">
          <path class="cls-6" d="M1556.59,719.37c-1.97,3.68-3.88,5.89-5.85,8.33-6.97,8.6-10.41,12.91-11.71,16.66-1.98,5.73-2.42,15.85,4.13,21.3,7.41,6.18,20.22,3.4,24.97-3.35,2.43-3.46,4.28-10.42,2.48-20.92-1.47-8.56-5.83-17.57-10.26-31.82-.6,2.42-1.68,5.93-3.75,9.8Z"/>
        </g>
        <path class="cls-1" d="M1550.6,764.21c1.23,.13,3.07,.19,5.22-.28,1.44-.31,4.13-.93,6.68-3.19,.53-.47,3.03-2.76,4.08-6.7,.83-3.08,.36-5.63,.03-7.29-.37-1.86-.95-3.35-1.43-4.38-1.16,3.22-2.97,7.31-5.84,11.65-2.98,4.5-6.16,7.84-8.74,10.18Z"/>
      </g>
      <g id="Drop-67" data-name="Drop">
        <g id="Drop-68" data-name="Drop">
          <path class="cls-6" d="M1192.59,478.37c-1.97,3.68-3.88,5.89-5.85,8.33-6.97,8.6-10.41,12.91-11.71,16.66-1.98,5.73-2.42,15.85,4.13,21.3,7.41,6.18,20.22,3.4,24.97-3.35,2.43-3.46,4.28-10.42,2.48-20.92-1.47-8.56-5.83-17.57-10.26-31.82-.6,2.42-1.68,5.93-3.75,9.8Z"/>
        </g>
        <path class="cls-1" d="M1186.6,523.21c1.23,.13,3.07,.19,5.22-.28,1.44-.31,4.13-.93,6.68-3.19,.53-.47,3.03-2.76,4.08-6.7,.83-3.08,.36-5.63,.03-7.29-.37-1.86-.95-3.35-1.43-4.38-1.16,3.22-2.97,7.31-5.84,11.65-2.98,4.5-6.16,7.84-8.74,10.18Z"/>
      </g>
      <g id="Drop-69" data-name="Drop">
        <g id="Drop-70" data-name="Drop">
          <path class="cls-6" d="M585.59,453.37c-1.97,3.68-3.88,5.89-5.85,8.33-6.97,8.6-10.41,12.91-11.71,16.66-1.98,5.73-2.42,15.85,4.13,21.3,7.41,6.18,20.22,3.4,24.97-3.35,2.43-3.46,4.28-10.42,2.48-20.92-1.47-8.56-5.83-17.57-10.26-31.82-.6,2.42-1.68,5.93-3.75,9.8Z"/>
        </g>
        <path class="cls-1" d="M579.6,498.21c1.23,.13,3.07,.19,5.22-.28,1.44-.31,4.13-.93,6.68-3.19,.53-.47,3.03-2.76,4.08-6.7,.83-3.08,.36-5.63,.03-7.29-.37-1.86-.95-3.35-1.43-4.38-1.16,3.22-2.97,7.31-5.84,11.65-2.98,4.5-6.16,7.84-8.74,10.18Z"/>
      </g>
      <g id="Drop-71" data-name="Drop">
        <g id="Drop-72" data-name="Drop">
          <path class="cls-6" d="M1524.21,961.32c-2.52,5.47-5.03,8.82-7.61,12.48-9.11,12.94-13.61,19.43-15.21,24.96-2.45,8.45-2.62,23.18,6.51,30.67,10.34,8.48,27.64,3.6,33.8-6.51,3.16-5.19,5.38-15.41,2.49-30.55-2.36-12.33-8.67-25.13-15.3-45.54-.71,3.55-2.03,8.73-4.69,14.48Z"/>
        </g>
        <path class="cls-1" d="M1517.95,1026.82c1.68,.11,4.18,.07,7.08-.75,1.94-.55,5.58-1.63,8.95-5.08,.7-.72,4-4.21,5.27-9.99,.99-4.53,.25-8.2-.27-10.59-.58-2.68-1.43-4.81-2.13-6.26-1.44,4.75-3.73,10.81-7.46,17.3-3.86,6.73-8.04,11.79-11.45,15.37Z"/>
      </g>
      <g id="Drop-73" data-name="Drop">
        <g id="Drop-74" data-name="Drop">
          <path class="cls-6" d="M1254.21,809.32c-2.52,5.47-5.03,8.82-7.61,12.48-9.11,12.94-13.61,19.43-15.21,24.96-2.45,8.45-2.62,23.18,6.51,30.67,10.34,8.48,27.64,3.6,33.8-6.51,3.16-5.19,5.38-15.41,2.49-30.55-2.36-12.33-8.67-25.13-15.3-45.54-.71,3.55-2.03,8.73-4.69,14.48Z"/>
        </g>
        <path class="cls-1" d="M1247.95,874.82c1.68,.11,4.18,.07,7.08-.75,1.94-.55,5.58-1.63,8.95-5.08,.7-.72,4-4.21,5.27-9.99,.99-4.53,.25-8.2-.27-10.59-.58-2.68-1.43-4.81-2.13-6.26-1.44,4.75-3.73,10.81-7.46,17.3-3.86,6.73-8.04,11.79-11.45,15.37Z"/>
      </g>
      <g id="Drop-75" data-name="Drop">
        <g id="Drop-76" data-name="Drop">
          <path class="cls-6" d="M1663.01,849.78c-1.42,4.32-3.04,7.06-4.68,10.04-5.81,10.53-8.67,15.81-9.36,20.08-1.06,6.53,.31,17.51,8.22,22.18,8.96,5.29,22-.05,25.8-8.18,1.95-4.17,2.64-12.01-1.16-22.98-3.1-8.95-9.35-17.85-16.61-32.39-.19,2.71-.7,6.7-2.19,11.24Z"/>
        </g>
        <path class="cls-1" d="M1664.79,899.16c1.32-.08,3.28-.36,5.47-1.26,1.46-.6,4.2-1.76,6.48-4.66,.47-.6,2.7-3.53,3.11-7.96,.32-3.47-.64-6.13-1.29-7.85-.72-1.94-1.61-3.44-2.3-4.45-.64,3.67-1.82,8.41-4.07,13.62-2.34,5.39-5.09,9.57-7.4,12.57Z"/>
      </g>
      <g id="Drop-77" data-name="Drop">
        <g id="Drop-78" data-name="Drop">
          <path class="cls-6" d="M1798.08,955.64c-1.44,5.02-3.16,8.21-4.91,11.7-6.16,12.3-9.19,18.46-9.82,23.4-.96,7.54,.94,20.13,9.96,25.26,10.22,5.8,24.66-.75,28.64-10.22,2.04-4.86,2.56-13.89-2.08-26.4-3.78-10.19-11.08-20.24-19.72-36.73-.12,3.13-.56,7.72-2.08,13Z"/>
        </g>
        <path class="cls-1" d="M1801.75,1012.38c1.48-.14,3.66-.52,6.08-1.62,1.62-.74,4.65-2.16,7.11-5.57,.51-.71,2.91-4.15,3.21-9.25,.24-4-.93-7.03-1.71-8.99-.88-2.21-1.92-3.9-2.73-5.05-.59,4.25-1.75,9.73-4.1,15.79-2.44,6.27-5.39,11.17-7.86,14.69Z"/>
      </g>
      <g id="Drop-79" data-name="Drop">
        <g id="Drop-80" data-name="Drop">
          <path class="cls-6" d="M1834.93,726.64c-1.63,5.15-3.5,8.41-5.4,11.96-6.7,12.54-10,18.82-10.8,23.92-1.22,7.78,.37,20.87,9.5,26.44,10.34,6.32,25.39-.03,29.77-9.71,2.25-4.97,3.04-14.3-1.35-27.39-3.58-10.66-10.8-21.28-19.19-38.61-.22,3.23-.81,7.98-2.52,13.39Z"/>
        </g>
        <path class="cls-1" d="M1837.01,785.48c1.53-.1,3.78-.42,6.31-1.49,1.69-.71,4.85-2.1,7.48-5.55,.55-.72,3.12-4.2,3.58-9.48,.36-4.13-.75-7.31-1.49-9.36-.84-2.31-1.86-4.09-2.66-5.31-.74,4.38-2.09,10.02-4.69,16.22-2.69,6.42-5.87,11.4-8.53,14.97Z"/>
      </g>
      <g id="Drop-81" data-name="Drop">
        <g id="Drop-82" data-name="Drop">
          <path class="cls-6" d="M89.2,441.23c-2.84,4.66-5.44,7.41-8.15,10.44-9.57,10.7-14.3,16.07-16.31,20.87-3.06,7.34-4.64,20.55,2.96,28.21,8.61,8.67,24.87,6.05,31.48-2.4,3.39-4.34,6.41-13.3,5.24-27.18-.95-11.32-5.47-23.46-9.53-42.46-.99,3.12-2.7,7.63-5.68,12.53Z"/>
        </g>
        <path class="cls-1" d="M77.13,499.43c1.52,.27,3.81,.49,6.53,.05,1.83-.3,5.25-.9,8.65-3.65,.71-.57,4.06-3.38,5.78-8.44,1.35-3.97,1.02-7.34,.79-9.54-.26-2.47-.84-4.46-1.33-5.84-1.77,4.12-4.45,9.33-8.48,14.78-4.18,5.65-8.48,9.77-11.94,12.64Z"/>
      </g>
      <g id="Drop-83" data-name="Drop">
        <g id="Drop-84" data-name="Drop">
          <path class="cls-6" d="M241.77,322.92c-1.88,4.97-3.89,8.06-5.95,11.45-7.26,11.95-10.84,17.94-11.9,22.89-1.61,7.57-.75,20.49,7.94,26.45,9.84,6.75,24.99,1.32,29.81-7.95,2.47-4.76,3.76-13.87,.12-26.95-2.96-10.65-9.5-21.46-16.83-38.91-.39,3.16-1.22,7.78-3.2,13.01Z"/>
        </g>
        <path class="cls-1" d="M240.69,380.77c1.51-.02,3.75-.21,6.29-1.13,1.7-.61,4.88-1.8,7.66-5.04,.58-.67,3.29-3.96,4.03-9.11,.58-4.04-.35-7.21-.97-9.26-.7-2.31-1.62-4.12-2.34-5.35-.96,4.26-2.59,9.72-5.48,15.66-2.99,6.15-6.39,10.87-9.19,14.23Z"/>
      </g>
      <g id="Drop-85" data-name="Drop">
        <g id="Drop-86" data-name="Drop">
          <path class="cls-6" d="M185.08,571.28c-1.84,5.58-3.9,9.1-5.99,12.94-7.4,13.55-11.05,20.34-11.99,25.87-1.43,8.45,.06,22.74,9.77,28.96,11,7.05,27.27,.39,32.13-10.08,2.49-5.38,3.5-15.53-1.01-29.85-3.68-11.67-11.25-23.36-19.98-42.38-.29,3.52-1,8.68-2.93,14.55Z"/>
        </g>
        <path class="cls-1" d="M186.36,635.41c1.64-.08,4.07-.4,6.8-1.52,1.83-.75,5.24-2.2,8.13-5.92,.6-.77,3.42-4.53,4-10.27,.46-4.49-.68-7.97-1.45-10.22-.86-2.53-1.93-4.49-2.77-5.82-.86,4.76-2.41,10.88-5.3,17.59-3,6.95-6.49,12.32-9.4,16.16Z"/>
      </g>
      <g id="Drop-87" data-name="Drop">
        <g id="Drop-88" data-name="Drop">
          <path class="cls-6" d="M343.57,456.2c-2.3,4.47-4.53,7.17-6.83,10.14-8.13,10.47-12.14,15.73-13.65,20.27-2.31,6.94-2.82,19.19,4.81,25.7,8.64,7.37,23.59,3.86,29.12-4.35,2.84-4.21,4.99-12.64,2.9-25.31-1.71-10.32-6.8-21.16-11.97-38.33-.7,2.93-1.96,7.19-4.38,11.89Z"/>
        </g>
        <path class="cls-1" d="M336.58,510.46c1.43,.14,3.58,.19,6.08-.4,1.68-.4,4.82-1.18,7.79-3.94,.62-.57,3.53-3.38,4.77-8.14,.96-3.73,.42-6.81,.04-8.81-.43-2.25-1.11-4.04-1.67-5.27-1.35,3.9-3.46,8.87-6.82,14.15-3.48,5.47-7.18,9.55-10.19,12.41Z"/>
      </g>
      <g id="Drop-89" data-name="Drop">
        <g id="Drop-90" data-name="Drop">
          <path class="cls-6" d="M507.93,565.38c-2.63,4.27-5.05,6.78-7.57,9.55-8.89,9.78-13.28,14.69-15.13,19.09-2.83,6.72-4.28,18.85,2.81,25.91,8.03,7.99,23.16,5.65,29.29-2.08,3.15-3.97,5.94-12.18,4.82-24.93-.91-10.39-5.13-21.56-8.95-39.02-.92,2.86-2.5,6.99-5.27,11.48Z"/>
        </g>
        <path class="cls-1" d="M496.81,618.76c1.41,.25,3.54,.47,6.08,.07,1.7-.26,4.89-.8,8.05-3.31,.66-.52,3.77-3.08,5.36-7.72,1.25-3.63,.94-6.74,.71-8.75-.25-2.27-.79-4.1-1.25-5.37-1.64,3.77-4.12,8.55-7.87,13.54-3.88,5.17-7.88,8.94-11.09,11.55Z"/>
      </g>
      <g id="Drop-91" data-name="Drop">
        <g id="Drop-92" data-name="Drop">
          <path class="cls-6" d="M114.93,954.38c-2.63,4.27-5.05,6.78-7.57,9.55-8.89,9.78-13.28,14.69-15.13,19.09-2.83,6.72-4.28,18.85,2.81,25.91,8.03,7.99,23.16,5.65,29.29-2.08,3.15-3.97,5.94-12.18,4.82-24.93-.91-10.39-5.13-21.56-8.95-39.02-.92,2.86-2.5,6.99-5.27,11.48Z"/>
        </g>
        <path class="cls-1" d="M103.81,1007.76c1.41,.25,3.54,.47,6.08,.07,1.7-.26,4.89-.8,8.05-3.31,.66-.52,3.77-3.08,5.36-7.72,1.25-3.63,.94-6.74,.71-8.75-.25-2.27-.79-4.1-1.25-5.37-1.64,3.77-4.12,8.55-7.87,13.54-3.88,5.17-7.88,8.94-11.09,11.55Z"/>
      </g>
      <g id="Drop-93" data-name="Drop">
        <g id="Drop-94" data-name="Drop">
          <path class="cls-6" d="M516.55,334.6c-1.56,5.42-3.42,8.86-5.29,12.62-6.63,13.26-9.89,19.91-10.59,25.24-1.06,8.15,.91,21.78,10.52,27.38,10.88,6.34,26.32-.66,30.61-10.88,2.2-5.25,2.79-15.01-2.1-28.56-3.99-11.05-11.73-21.95-20.88-39.84-.15,3.38-.63,8.35-2.28,14.05Z"/>
        </g>
        <path class="cls-1" d="M520.21,395.99c1.58-.14,3.91-.54,6.5-1.71,1.73-.79,4.97-2.31,7.61-5.98,.55-.76,3.13-4.47,3.47-9.99,.27-4.32-.96-7.61-1.78-9.74-.93-2.4-2.03-4.23-2.89-5.48-.65,4.59-1.91,10.52-4.45,17.05-2.63,6.77-5.8,12.05-8.46,15.84Z"/>
      </g>
      <text/>
      <g id="Drop-95" data-name="Drop">
        <g id="Drop-96" data-name="Drop">
          <path class="cls-6" d="M882.83,34.39c-1.22,6.3-2.95,10.38-4.68,14.82-6.11,15.67-9.1,23.51-9.37,29.64-.4,9.36,3.1,24.65,14.33,30.13,12.71,6.2,29.24-3.16,33.03-15.17,1.95-6.16,1.67-17.3-5.07-32.25-5.49-12.18-15.16-23.86-27.05-43.33,.16,3.85,.09,9.54-1.19,16.16Z"/>
        </g>
        <path class="cls-1" d="M892.76,103.77c1.75-.31,4.3-.97,7.07-2.54,1.85-1.05,5.32-3.08,7.9-7.48,.54-.91,3.05-5.36,2.91-11.66-.11-4.93-1.8-8.56-2.91-10.9-1.26-2.63-2.67-4.62-3.75-5.95-.29,5.27-1.12,12.12-3.33,19.77-2.28,7.93-5.3,14.21-7.9,18.76Z"/>
      </g>
      <g id="Drop-97" data-name="Drop">
        <g id="Drop-98" data-name="Drop">
          <path class="cls-6" d="M844.99,257.12c-1.1,6.19-2.73,10.22-4.36,14.6-5.75,15.46-8.56,23.2-8.72,29.2-.24,9.17,3.45,24.1,14.57,29.28,12.6,5.86,28.68-3.6,32.22-15.43,1.81-6.07,1.36-16.98-5.51-31.51-5.6-11.84-15.29-23.12-27.29-42,.22,3.77,.25,9.35-.91,15.86Z"/>
        </g>
        <path class="cls-1" d="M855.89,324.94c1.71-.33,4.21-1.02,6.91-2.61,1.8-1.06,5.17-3.11,7.65-7.47,.51-.91,2.91-5.31,2.67-11.48-.19-4.83-1.9-8.35-3.04-10.63-1.28-2.56-2.7-4.48-3.78-5.77-.2,5.17-.91,11.9-2.95,19.43-2.11,7.81-4.98,14.02-7.46,18.52Z"/>
      </g>
      <g id="Drop-99" data-name="Drop">
        <g id="Drop-100" data-name="Drop">
          <path class="cls-6" d="M998.8,145.04c-.72,4.83-1.93,8.01-3.13,11.46-4.23,12.17-6.29,18.26-6.26,22.91,.04,7.1,3.41,18.51,12.5,22.1,10.3,4.06,23-3.85,25.54-13.13,1.3-4.76,.65-13.19-5.26-24.17-4.82-8.95-12.92-17.31-23.08-31.47,.28,2.91,.44,7.22-.32,12.3Z"/>
        </g>
        <path class="cls-1" d="M1009.35,197.09c1.37-.32,3.37-.95,5.5-2.28,1.43-.89,4.09-2.6,5.96-6.06,.39-.72,2.21-4.21,1.85-8.98-.28-3.73-1.75-6.39-2.73-8.11-1.1-1.93-2.29-3.36-3.19-4.32-.02,4.01-.42,9.23-1.86,15.14-1.5,6.12-3.64,11.03-5.52,14.6Z"/>
      </g>
      <g id="Drop-101" data-name="Drop">
        <g id="Drop-102" data-name="Drop">
          <path class="cls-6" d="M1161.78,26.47c-1.91,4.15-3.83,6.69-5.81,9.47-6.99,9.83-10.44,14.76-11.62,18.95-1.8,6.39-1.69,17.49,5.65,23.05,8.32,6.3,21.92,2.46,26.63-5.21,2.42-3.94,4-11.66,1.47-23.04-2.07-9.27-7.27-18.86-12.85-34.17-.5,2.68-1.46,6.59-3.47,10.95Z"/>
        </g>
        <path class="cls-1" d="M1157.91,75.89c1.33,.07,3.31,.02,5.59-.63,1.53-.43,4.39-1.28,6.99-3.9,.54-.55,3.1-3.21,4.01-7.58,.71-3.42,.06-6.18-.38-7.98-.5-2.02-1.21-3.61-1.79-4.7-1.06,3.59-2.77,8.18-5.61,13.1-2.94,5.1-6.17,8.96-8.8,11.68Z"/>
      </g>
      <g id="Drop-103" data-name="Drop">
        <g id="Drop-104" data-name="Drop">
          <path class="cls-6" d="M1267.37,159.77c-1.47,4.07-3.1,6.63-4.76,9.42-5.85,9.86-8.74,14.79-9.51,18.83-1.18,6.17-.16,16.64,7.31,21.29,8.46,5.26,21.12,.53,24.97-7.1,1.98-3.91,2.85-11.34-.52-21.86-2.74-8.58-8.5-17.2-15.1-31.2-.26,2.57-.85,6.34-2.4,10.62Z"/>
        </g>
        <path class="cls-1" d="M1267.79,206.73c1.27-.05,3.16-.26,5.28-1.05,1.42-.53,4.08-1.57,6.35-4.26,.47-.56,2.69-3.29,3.19-7.48,.39-3.29-.46-5.84-1.03-7.5-.64-1.86-1.46-3.31-2.1-4.29-.71,3.47-1.96,7.94-4.26,12.83-2.38,5.06-5.14,8.96-7.43,11.75Z"/>
      </g>
      <g id="Drop-105" data-name="Drop">
        <g id="Drop-106" data-name="Drop">
          <path class="cls-6" d="M1405.6,31.46c-2.41,5.72-4.86,9.25-7.38,13.11-8.91,13.64-13.3,20.48-14.76,26.23-2.23,8.78-1.91,23.96,7.69,31.36,10.88,8.38,28.46,2.76,34.44-7.86,3.07-5.45,5-16.06,1.54-31.54-2.83-12.62-9.73-25.58-17.2-46.37-.61,3.68-1.79,9.05-4.32,15.07Z"/>
        </g>
        <path class="cls-1" d="M1401.37,99.14c1.72,.05,4.29-.07,7.23-1.01,1.97-.63,5.67-1.87,9-5.53,.69-.76,3.96-4.48,5.07-10.47,.87-4.7-.02-8.46-.62-10.89-.68-2.74-1.63-4.9-2.39-6.38-1.31,4.94-3.46,11.26-7.07,18.07-3.73,7.06-7.85,12.42-11.23,16.22Z"/>
      </g>
      <g id="Drop-107" data-name="Drop">
        <g id="Drop-108" data-name="Drop">
          <path class="cls-6" d="M1515.07,167.85c-.94,5.44-2.37,8.99-3.8,12.84-5.03,13.62-7.49,20.43-7.59,25.69-.15,8.04,3.25,21.07,13.23,25.46,11.3,4.97,25.61-3.52,28.68-13.92,1.58-5.34,1.1-14.89-5.14-27.53-5.08-10.3-13.82-20.06-24.68-36.45,.22,3.3,.29,8.18-.7,13.9Z"/>
        </g>
        <path class="cls-1" d="M1525.28,227.12c1.53-.31,3.76-.95,6.16-2.37,1.61-.95,4.6-2.79,6.78-6.64,.45-.8,2.57-4.68,2.31-10.09-.2-4.23-1.76-7.29-2.79-9.27-1.16-2.23-2.44-3.89-3.42-5.01-.14,4.53-.73,10.43-2.5,17.06-1.83,6.87-4.35,12.34-6.54,16.32Z"/>
      </g>
      <g id="Drop-109" data-name="Drop">
        <g id="Drop-110" data-name="Drop">
          <path class="cls-6" d="M1672.97,51.06c-1.7,4.57-3.54,7.43-5.41,10.56-6.63,11.03-9.9,16.56-10.83,21.11-1.42,6.95-.47,18.8,7.68,24.17,9.23,6.09,23.29,.96,27.67-7.59,2.25-4.39,3.35-12.76-.18-24.71-2.87-9.74-9.08-19.58-16.1-35.5-.33,2.9-1.05,7.15-2.83,11.96Z"/>
        </g>
        <path class="cls-1" d="M1672.59,104.11c1.4-.03,3.49-.24,5.84-1.1,1.58-.58,4.53-1.7,7.08-4.7,.53-.62,3.02-3.66,3.65-8.4,.49-3.71-.4-6.61-1-8.48-.68-2.12-1.55-3.76-2.24-4.88-.85,3.91-2.31,8.94-4.93,14.42-2.72,5.67-5.83,10.03-8.4,13.14Z"/>
      </g>
      <g id="Drop-111" data-name="Drop">
        <g id="Drop-112" data-name="Drop">
          <path class="cls-6" d="M1813.59,178.31c-2.4,5.31-4.8,8.55-7.27,12.11-8.73,12.57-13.04,18.87-14.55,24.23-2.3,8.18-2.33,22.41,6.6,29.57,10.11,8.11,26.87,3.26,32.77-6.55,3.03-5.04,5.09-14.93,2.14-29.52-2.4-11.89-8.65-24.2-15.26-43.86-.66,3.44-1.89,8.44-4.42,14.02Z"/>
        </g>
        <path class="cls-1" d="M1808.11,241.63c1.63,.09,4.06,.04,6.87-.78,1.88-.55,5.41-1.62,8.64-4.97,.67-.7,3.85-4.1,5.03-9.69,.92-4.38,.16-7.93-.35-10.22-.58-2.59-1.44-4.63-2.12-6.03-1.35,4.6-3.52,10.47-7.08,16.77-3.69,6.53-7.7,11.45-10.98,14.93Z"/>
      </g>
      <g id="Drop-113" data-name="Drop">
        <g id="Drop-114" data-name="Drop">
          <path class="cls-6" d="M1815.17,67.02c-2.39,4.47-4.67,7.15-7.03,10.11-8.35,10.42-12.47,15.65-14.07,20.21-2.44,6.96-3.15,19.29,4.42,25.97,8.58,7.56,23.67,4.26,29.37-3.92,2.93-4.2,5.23-12.66,3.32-25.46-1.55-10.43-6.5-21.43-11.42-38.81-.75,2.94-2.09,7.21-4.6,11.91Z"/>
        </g>
        <path class="cls-1" d="M1807.26,121.58c1.44,.17,3.6,.25,6.13-.31,1.69-.37,4.87-1.11,7.9-3.85,.63-.57,3.61-3.35,4.93-8.13,1.03-3.75,.53-6.86,.18-8.88-.39-2.27-1.05-4.09-1.59-5.34-1.42,3.91-3.63,8.88-7.09,14.15-3.59,5.46-7.38,9.51-10.45,12.35Z"/>
      </g>
      <g id="Drop-115" data-name="Drop">
        <g id="Drop-116" data-name="Drop">
          <path class="cls-6" d="M297.78,112.66c-2.69,5.09-5.26,8.14-7.92,11.5-9.39,11.86-14.03,17.82-15.84,23-2.77,7.92-3.66,21.95,4.73,29.56,9.5,8.61,26.35,4.85,32.77-4.46,3.29-4.78,5.93-14.41,3.9-28.98-1.65-11.87-7.08-24.4-12.42-44.18-.86,3.35-2.38,8.21-5.22,13.56Z"/>
        </g>
        <path class="cls-1" d="M288.54,174.76c1.6,.19,4.01,.28,6.83-.35,1.89-.42,5.44-1.27,8.84-4.38,.71-.65,4.05-3.81,5.56-9.25,1.18-4.26,.64-7.81,.27-10.1-.42-2.59-1.14-4.65-1.73-6.08-1.61,4.45-4.11,10.11-8.01,16.11-4.04,6.21-8.3,10.82-11.75,14.05Z"/>
      </g>
      <g id="Drop-117" data-name="Drop">
        <g id="Drop-118" data-name="Drop">
          <path class="cls-6" d="M447.54,50.67c-1.11,6.51-2.79,10.75-4.47,15.36-5.91,16.26-8.81,24.4-8.94,30.71-.2,9.64,3.73,25.31,15.37,30.71,13.18,6.12,29.91-3.88,33.53-16.32,1.86-6.38,1.32-17.85-5.92-33.09-5.91-12.42-16.08-24.24-28.71-44.04,.25,3.96,.31,9.82-.86,16.67Z"/>
        </g>
        <path class="cls-1" d="M459.29,121.89c1.78-.35,4.39-1.09,7.2-2.77,1.88-1.12,5.38-3.28,7.94-7.87,.53-.95,3.01-5.58,2.72-12.07-.22-5.08-2.03-8.77-3.23-11.16-1.35-2.69-2.84-4.7-3.97-6.05-.18,5.43-.88,12.5-2.97,20.43-2.16,8.21-5.12,14.75-7.68,19.49Z"/>
      </g>
      <g id="Drop-119" data-name="Drop">
        <g id="Drop-120" data-name="Drop">
          <path class="cls-6" d="M420.79,249.65c-1.12,4.72-2.59,7.77-4.07,11.09-5.22,11.7-7.78,17.56-8.14,22.17-.56,7.04,1.82,18.63,10.54,22.94,9.87,4.89,23.14-1.89,26.44-10.87,1.69-4.61,1.76-13.01-3.18-24.38-4.02-9.27-11.35-18.23-20.23-33.11,.03,2.91-.17,7.19-1.35,12.16Z"/>
        </g>
        <path class="cls-1" d="M426.87,302.09c1.38-.2,3.42-.66,5.64-1.8,1.49-.76,4.27-2.23,6.42-5.51,.45-.68,2.54-3.99,2.59-8.74,.04-3.72-1.2-6.48-2.02-8.26-.93-2.01-1.99-3.52-2.8-4.55-.36,3.97-1.19,9.11-3.12,14.84-2,5.94-4.54,10.62-6.71,14Z"/>
      </g>
      <g id="Drop-121" data-name="Drop">
        <g id="Drop-122" data-name="Drop">
          <path class="cls-6" d="M569.43,132.97c-1.59,3.96-3.29,6.43-5.02,9.13-6.12,9.52-9.13,14.29-10.04,18.25-1.38,6.05-.71,16.41,6.51,21.24,8.19,5.47,20.86,1.23,24.93-6.17,2.09-3.79,3.2-11.08,.22-21.58-2.42-8.55-7.83-17.25-13.89-31.27-.34,2.53-1.05,6.23-2.73,10.39Z"/>
        </g>
        <path class="cls-1" d="M568.27,179.28c1.26,0,3.13-.15,5.26-.86,1.42-.48,4.09-1.41,6.42-3.99,.48-.54,2.77-3.15,3.41-7.27,.5-3.23-.26-5.77-.77-7.43-.57-1.86-1.33-3.31-1.93-4.3-.82,3.4-2.21,7.77-4.65,12.51-2.53,4.91-5.38,8.66-7.74,11.33Z"/>
      </g>
      <g id="Drop-123" data-name="Drop">
        <g id="Drop-124" data-name="Drop">
          <path class="cls-6" d="M407.43,380.97c-1.59,3.96-3.29,6.43-5.02,9.13-6.12,9.52-9.13,14.29-10.04,18.25-1.38,6.05-.71,16.41,6.51,21.24,8.19,5.47,20.86,1.23,24.93-6.17,2.09-3.79,3.2-11.08,.22-21.58-2.42-8.55-7.83-17.25-13.89-31.27-.34,2.53-1.05,6.23-2.73,10.39Z"/>
        </g>
        <path class="cls-1" d="M406.27,427.28c1.26,0,3.13-.15,5.26-.86,1.42-.48,4.09-1.41,6.42-3.99,.48-.54,2.77-3.15,3.41-7.27,.5-3.23-.26-5.77-.77-7.43-.57-1.86-1.33-3.31-1.93-4.3-.82,3.4-2.21,7.77-4.65,12.51-2.53,4.91-5.38,8.66-7.74,11.33Z"/>
      </g>
      <g id="Drop-125" data-name="Drop">
        <g id="Drop-126" data-name="Drop">
          <path class="cls-6" d="M94.27,116.31c-1.96,4.61-3.97,7.46-6.05,10.58-7.31,11.01-10.92,16.53-12.09,21.16-1.79,7.07-1.4,19.28,6.67,25.19,9.14,6.7,23.75,2.11,28.65-6.46,2.51-4.4,4.04-12.94,1.02-25.38-2.46-10.14-8.32-20.54-14.72-37.23-.48,2.96-1.42,7.29-3.48,12.14Z"/>
        </g>
        <path class="cls-1" d="M91.3,170.77c1.44,.04,3.57-.07,6.02-.85,1.64-.52,4.71-1.53,7.46-4.49,.57-.61,3.27-3.62,4.14-8.45,.69-3.78-.09-6.8-.61-8.76-.59-2.2-1.4-3.93-2.05-5.12-1.06,3.98-2.79,9.07-5.74,14.57-3.06,5.7-6.44,10.02-9.22,13.09Z"/>
      </g>
      <g id="Drop-127" data-name="Drop">
        <g id="Drop-128" data-name="Drop">
          <path class="cls-6" d="M127.13,24.8c-.96,4.99-2.35,8.25-3.74,11.78-4.9,12.47-7.3,18.71-7.47,23.56-.27,7.4,2.71,19.43,11.95,23.58,10.47,4.7,23.95-2.95,26.97-12.49,1.55-4.9,1.25-13.69-4.38-25.4-4.59-9.54-12.59-18.62-22.47-33.82,.16,3.04,.14,7.54-.86,12.79Z"/>
        </g>
        <path class="cls-1" d="M135.76,79.46c1.43-.27,3.52-.83,5.78-2.12,1.51-.86,4.34-2.51,6.43-6.03,.43-.73,2.46-4.28,2.3-9.26-.12-3.9-1.53-6.73-2.46-8.56-1.05-2.06-2.22-3.61-3.11-4.65-.2,4.17-.84,9.59-2.59,15.67-1.81,6.3-4.25,11.31-6.35,14.95Z"/>
      </g>
      <g id="Drop-129" data-name="Drop">
        <g id="Drop-130" data-name="Drop">
          <path class="cls-6" d="M225.7,245.26c-1.47,5.54-3.27,9.08-5.09,12.94-6.43,13.62-9.59,20.44-10.18,25.88-.9,8.31,1.4,22.11,11.25,27.6,11.16,6.21,26.67-1.23,30.79-11.71,2.12-5.38,2.5-15.31-2.75-28.98-4.28-11.14-12.37-22.06-22.02-40.04-.08,3.44-.46,8.5-2,14.32Z"/>
        </g>
        <path class="cls-1" d="M230.74,307.57c1.6-.18,3.95-.63,6.55-1.88,1.74-.84,4.99-2.45,7.59-6.24,.54-.79,3.07-4.61,3.3-10.23,.18-4.4-1.14-7.71-2.02-9.86-.99-2.41-2.15-4.26-3.05-5.5-.56,4.68-1.71,10.73-4.14,17.42-2.52,6.94-5.62,12.37-8.23,16.28Z"/>
      </g>
      <g id="Drop-131" data-name="Drop">
        <g id="Drop-132" data-name="Drop">
          <path class="cls-6" d="M107.7,266.26c-1.47,5.54-3.27,9.08-5.09,12.94-6.43,13.62-9.59,20.44-10.18,25.88-.9,8.31,1.4,22.11,11.25,27.6,11.16,6.21,26.67-1.23,30.79-11.71,2.12-5.38,2.5-15.31-2.75-28.98-4.28-11.14-12.37-22.06-22.02-40.04-.08,3.44-.46,8.5-2,14.32Z"/>
        </g>
        <path class="cls-1" d="M112.74,328.57c1.6-.18,3.95-.63,6.55-1.88,1.74-.84,4.99-2.45,7.59-6.24,.54-.79,3.07-4.61,3.3-10.23,.18-4.4-1.14-7.71-2.02-9.86-.99-2.41-2.15-4.26-3.05-5.5-.56,4.68-1.71,10.73-4.14,17.42-2.52,6.94-5.62,12.37-8.23,16.28Z"/>
      </g>
      <g id="Drop-133" data-name="Drop">
        <g id="Drop-134" data-name="Drop">
          <path class="cls-6" d="M366.09,133.73c-1.59,3.79-3.26,6.14-4.97,8.71-6.04,9.08-9.02,13.63-9.94,17.43-1.41,5.8-.88,15.77,6.07,20.5,7.87,5.36,20.21,1.44,24.24-5.62,2.07-3.62,3.23-10.62,.47-20.74-2.25-8.25-7.39-16.68-13.09-30.24-.36,2.43-1.09,5.97-2.77,9.96Z"/>
        </g>
        <path class="cls-1" d="M364.42,178.25c1.22,.01,3.03-.1,5.1-.76,1.38-.44,3.98-1.3,6.27-3.75,.48-.51,2.72-2.99,3.39-6.95,.52-3.1-.18-5.56-.66-7.15-.54-1.79-1.25-3.2-1.82-4.16-.83,3.26-2.23,7.44-4.65,11.97-2.51,4.69-5.32,8.26-7.63,10.8Z"/>
      </g>
      <g id="Drop-135" data-name="Drop">
        <g id="Drop-136" data-name="Drop">
          <path class="cls-6" d="M725.57,242.46c-1.23,4.04-2.68,6.61-4.16,9.42-5.21,9.9-7.77,14.85-8.31,18.83-.83,6.07,.72,16.2,8.27,20.33,8.55,4.67,20.69-.61,24.05-8.23,1.73-3.91,2.19-11.18-1.66-21.25-3.13-8.2-9.23-16.29-16.41-29.56-.11,2.52-.5,6.22-1.79,10.46Z"/>
        </g>
        <path class="cls-1" d="M728.45,288.13c1.24-.11,3.07-.42,5.11-1.3,1.36-.59,3.91-1.74,5.98-4.48,.43-.57,2.46-3.34,2.73-7.45,.21-3.22-.76-5.66-1.4-7.24-.73-1.78-1.6-3.14-2.28-4.06-.51,3.42-1.5,7.83-3.5,12.71-2.07,5.05-4.55,8.99-6.65,11.82Z"/>
      </g>
      <g id="Drop-137" data-name="Drop">
        <g id="Drop-138" data-name="Drop">
          <path class="cls-6" d="M688.24,25.15c-2.8,5.6-5.51,8.99-8.3,12.72-9.87,13.14-14.75,19.74-16.61,25.43-2.83,8.7-3.53,24.01,5.64,32.1,10.38,9.17,28.44,4.68,35.17-5.62,3.45-5.29,6.11-15.84,3.66-31.67-2-12.9-8.07-26.42-14.19-47.86-.86,3.67-2.41,9-5.36,14.9Z"/>
        </g>
        <path class="cls-1" d="M679.46,93.04c1.73,.17,4.32,.22,7.35-.54,2.03-.51,5.83-1.51,9.42-4.97,.75-.72,4.29-4.24,5.8-10.21,1.19-4.67,.54-8.52,.1-11.02-.5-2.81-1.31-5.04-1.98-6.58-1.65,4.89-4.24,11.11-8.32,17.73-4.23,6.86-8.73,11.99-12.38,15.58Z"/>
      </g>
      <g id="Drop-139" data-name="Drop">
        <g id="Drop-140" data-name="Drop">
          <path class="cls-6" d="M40.12,660.58c-1.46,5.25-3.21,8.6-4.99,12.25-6.28,12.88-9.37,19.33-9.99,24.49-.94,7.88,1.14,21.01,10.53,26.3,10.63,5.99,25.55-.96,29.6-10.88,2.08-5.09,2.54-14.52-2.37-27.55-4-10.61-11.65-21.05-20.73-38.21-.1,3.27-.52,8.07-2.05,13.59Z"/>
        </g>
        <path class="cls-1" d="M44.38,719.8c1.53-.16,3.79-.57,6.29-1.73,1.67-.78,4.8-2.29,7.32-5.86,.52-.74,2.98-4.35,3.26-9.68,.21-4.18-1.02-7.34-1.84-9.38-.93-2.3-2.02-4.06-2.87-5.25-.58,4.44-1.74,10.18-4.13,16.51-2.48,6.57-5.49,11.7-8.03,15.39Z"/>
      </g>
      <g id="Drop-141" data-name="Drop">
        <g id="Drop-142" data-name="Drop">
          <path class="cls-6" d="M155.78,785.99c-2.15,3.44-4.15,5.47-6.22,7.71-7.32,7.9-10.95,11.86-12.44,15.41-2.28,5.43-3.33,15.22,2.72,20.93,6.85,6.46,19.52,4.58,24.56-1.66,2.59-3.2,4.82-9.84,3.7-20.14-.91-8.39-4.61-17.41-8.06-31.52-.73,2.31-2,5.65-4.26,9.27Z"/>
        </g>
        <path class="cls-1" d="M147.19,829.1c1.19,.2,2.98,.38,5.11,.06,1.42-.21,4.09-.64,6.71-2.67,.54-.42,3.13-2.49,4.4-6.24,1-2.94,.69-5.44,.48-7.07-.24-1.83-.72-3.31-1.13-4.34-1.33,3.05-3.34,6.9-6.42,10.93-3.18,4.17-6.49,7.22-9.15,9.32Z"/>
      </g>
      <g id="Drop-143" data-name="Drop">
        <g id="Drop-144" data-name="Drop">
          <path class="cls-6" d="M314.66,656.68c-2.75,5.51-5.41,8.84-8.15,12.5-9.7,12.93-14.49,19.41-16.31,25.01-2.77,8.55-3.43,23.59,5.62,31.53,10.25,8.99,28.02,4.56,34.63-5.56,3.39-5.2,5.99-15.57,3.54-31.12-1.99-12.67-8-25.95-14.08-47-.84,3.6-2.35,8.85-5.25,14.64Z"/>
        </g>
        <path class="cls-1" d="M306.15,723.39c1.7,.16,4.25,.21,7.23-.54,2-.5,5.74-1.49,9.27-4.9,.73-.71,4.21-4.18,5.7-10.04,1.16-4.59,.52-8.37,.08-10.82-.5-2.76-1.3-4.95-1.96-6.46-1.62,4.8-4.15,10.92-8.16,17.43-4.15,6.75-8.57,11.79-12.16,15.33Z"/>
      </g>
      <g id="Drop-145" data-name="Drop">
        <g id="Drop-146" data-name="Drop">
          <path class="cls-6" d="M288.36,906.93c-1.5,6.27-3.41,10.3-5.34,14.68-6.81,15.47-10.15,23.22-10.68,29.36-.81,9.38,2.04,24.89,13.07,30.88,12.49,6.78,29.48-1.91,33.81-13.8,2.22-6.1,2.43-17.3-3.69-32.61-4.99-12.47-14.18-24.62-25.27-44.7,0,3.88-.32,9.59-1.89,16.18Z"/>
        </g>
        <path class="cls-1" d="M295.33,977.04c1.77-.23,4.36-.79,7.21-2.25,1.91-.98,5.47-2.86,8.26-7.17,.58-.9,3.3-5.25,3.43-11.59,.1-4.96-1.43-8.67-2.45-11.07-1.15-2.7-2.48-4.75-3.5-6.14-.52,5.28-1.65,12.12-4.19,19.71-2.63,7.86-5.94,14.05-8.74,18.5Z"/>
      </g>
      <g id="Drop-147" data-name="Drop">
        <g id="Drop-148" data-name="Drop">
          <path class="cls-6" d="M408.73,798.31c-1.06,4.16-2.42,6.83-3.78,9.75-4.82,10.29-7.19,15.44-7.56,19.5-.57,6.2,1.46,16.42,9.29,20.27,8.87,4.36,20.91-1.54,23.98-9.44,1.57-4.05,1.71-11.45-2.64-21.51-3.54-8.19-10.08-16.13-17.95-29.28,0,2.56-.22,6.34-1.33,10.71Z"/>
        </g>
        <path class="cls-1" d="M413.72,844.56c1.25-.17,3.09-.56,5.11-1.55,1.35-.66,3.88-1.94,5.85-4.82,.41-.6,2.33-3.5,2.42-7.69,.07-3.28-1.02-5.71-1.75-7.29-.82-1.77-1.76-3.12-2.49-4.02-.36,3.49-1.17,8.02-2.96,13.06-1.86,5.22-4.2,9.34-6.19,12.31Z"/>
      </g>
      <g id="Drop-149" data-name="Drop">
        <g id="Drop-150" data-name="Drop">
          <path class="cls-6" d="M462.73,944.31c-1.06,4.16-2.42,6.83-3.78,9.75-4.82,10.29-7.19,15.44-7.56,19.5-.57,6.2,1.46,16.42,9.29,20.27,8.87,4.36,20.91-1.54,23.98-9.44,1.57-4.05,1.71-11.45-2.64-21.51-3.54-8.19-10.08-16.13-17.95-29.28,0,2.56-.22,6.34-1.33,10.71Z"/>
        </g>
        <path class="cls-1" d="M467.72,990.56c1.25-.17,3.09-.56,5.11-1.55,1.35-.66,3.88-1.94,5.85-4.82,.41-.6,2.33-3.5,2.42-7.69,.07-3.28-1.02-5.71-1.75-7.29-.82-1.77-1.76-3.12-2.49-4.02-.36,3.49-1.17,8.02-2.96,13.06-1.86,5.22-4.2,9.34-6.19,12.31Z"/>
      </g>
      <g id="Drop-151" data-name="Drop">
        <g id="Drop-152" data-name="Drop">
          <path class="cls-6" d="M585.43,900.49c-1.52,5.47-3.34,8.95-5.19,12.75-6.53,13.41-9.74,20.12-10.38,25.49-.99,8.21,1.14,21.9,10.84,27.43,10.99,6.27,26.44-.93,30.65-11.25,2.16-5.3,2.65-15.12-2.4-28.71-4.12-11.07-12.01-21.96-21.38-39.86-.11,3.4-.55,8.4-2.15,14.15Z"/>
        </g>
        <path class="cls-1" d="M589.72,962.2c1.59-.16,3.92-.58,6.52-1.79,1.73-.81,4.98-2.37,7.59-6.09,.54-.77,3.1-4.53,3.39-10.08,.23-4.35-1.04-7.64-1.89-9.78-.95-2.4-2.09-4.23-2.96-5.48-.61,4.62-1.82,10.6-4.3,17.19-2.57,6.83-5.7,12.18-8.34,16.02Z"/>
      </g>
      <g id="Drop-153" data-name="Drop">
        <g id="Drop-154" data-name="Drop">
          <path class="cls-6" d="M579.04,673.04c-2.76,4.74-5.34,7.54-8,10.64-9.42,10.93-14.08,16.41-16.01,21.28-2.94,7.43-4.3,20.75,3.47,28.31,8.8,8.56,25.09,5.63,31.57-2.98,3.33-4.42,6.2-13.48,4.78-27.42-1.16-11.36-5.91-23.48-10.33-42.52-.94,3.15-2.58,7.72-5.49,12.7Z"/>
        </g>
        <path class="cls-1" d="M567.95,731.78c1.53,.24,3.83,.42,6.56-.07,1.83-.33,5.26-1,8.63-3.82,.7-.59,4.02-3.47,5.66-8.59,1.28-4.01,.9-7.4,.62-9.6-.31-2.48-.92-4.47-1.44-5.85-1.71,4.17-4.31,9.46-8.26,15.02-4.09,5.76-8.35,9.98-11.77,12.92Z"/>
      </g>
    </g>
    <path id="Cloud" class="cls-9" d="M1739.37,212.76c-25.3,0-49.57,4.36-72.13,12.33-21.2-97.26-107.79-170.09-211.4-170.09-95.89,0-177.2,62.38-205.6,148.78-18.68-5.26-38.39-8.08-58.75-8.08-119.5,0-216.38,96.88-216.38,216.38,0,227.04,223.31,305.92,493.52,305.92s489.26-115.01,489.26-256.89c0-160.95-99.01-248.36-218.51-248.36Z"/>
    <g id="Waves">
      <path class="cls-8" d="M-4.99,849.21c67.72-9.77,175.26-19.44,306.8-4.33,192.24,22.09,229.2,73.41,374.97,64.91,168.9-9.85,171.9-81.8,331.86-80.78,156.8,1,162.17,70.19,320.83,69.24,141.53-.85,172.39-56.11,315.82-60.58,118.68-3.7,214.92,30.47,274.71,57.7v184.64H-4.99v-230.79Z"/>
      <path class="cls-11" d="M-4.99,781c163.85,74.14,290.48,78.34,374.97,69,153.28-16.94,210.41-83.15,365.95-69,125.57,11.42,125.55,57.95,243.63,61,152.84,3.94,177.01-73.38,320.83-69,124.17,3.79,144.61,62.59,274.71,83,79.07,12.4,194.18,9.92,344.89-62v286H-4.99v-299Z"/>
      <path class="cls-10" d="M-1.99,867c163.59,74.14,290.03,78.34,374.39,69,153.04-16.94,210.08-83.15,365.38-69,125.37,11.42,125.35,57.95,243.25,61,152.6,3.94,176.73-73.38,320.33-69,123.98,3.79,144.39,62.59,274.28,83,78.94,12.4,193.88,9.92,344.36-62v200H-1.99v-213Z"/>
      <path class="cls-2" d="M-1.99,951.17c163.59,74.09,290.03,78.29,374.39,68.96,153.04-16.93,210.08-83.1,365.38-68.96,125.37,11.41,125.35,57.92,243.25,60.96,152.6,3.94,176.73-73.34,320.33-68.96,123.98,3.78,144.39,62.56,274.28,82.95,78.94,12.39,193.88,9.91,344.36-61.96,0,95.28-5.01,21.56-5.01,116.83H-7c0-99.61,5.01-30.22,5.01-129.83Z"/>
      <path class="cls-3" d="M1121.26,1080.17c1.93,0,1.93-3,0-3s-1.93,3,0,3h0Z"/>
      <path class="cls-5" d="M-4.99,928.21c67.72-9.77,175.26-19.44,306.8-4.33,192.24,22.09,229.2,73.41,374.97,64.91,168.9-9.85,171.9-81.8,331.86-80.78,156.8,1,162.17,70.19,320.83,69.24,141.53-.85,172.39-56.11,315.82-60.58,118.68-3.7,214.92,30.47,274.71,57.7v105.64H-4.99v-151.79Z"/>
    </g>
    <g>
      <path id="Cloud-2" data-name="Cloud" class="cls-1" d="M1526.2,348.49c-5.53,0-10.84,.95-15.78,2.7-4.64-21.28-23.58-37.21-46.25-37.21-20.98,0-38.77,13.65-44.98,32.55-4.09-1.15-8.4-1.77-12.85-1.77-26.14,0-47.34,21.19-47.34,47.34,0,49.67,48.85,66.93,107.97,66.93s107.03-25.16,107.03-56.2c0-35.21-21.66-54.33-47.8-54.33Z"/>
      <g id="Drop-155" data-name="Drop">
        <g id="Drop-156" data-name="Drop">
          <path class="cls-12" d="M1527.86,474.89c-1.97,3.68-3.88,5.89-5.85,8.33-6.97,8.6-10.41,12.91-11.71,16.66-1.98,5.73-2.42,15.85,4.13,21.3,7.41,6.18,20.22,3.4,24.97-3.35,2.43-3.46,4.28-10.42,2.48-20.92-1.47-8.56-5.83-17.57-10.26-31.82-.6,2.42-1.68,5.93-3.75,9.8Z"/>
        </g>
        <path class="cls-1" d="M1521.87,519.73c1.23,.13,3.07,.19,5.22-.28,1.44-.31,4.13-.93,6.68-3.19,.53-.47,3.03-2.76,4.08-6.7,.83-3.08,.36-5.63,.03-7.29-.37-1.86-.95-3.35-1.43-4.38-1.16,3.22-2.97,7.31-5.84,11.65-2.98,4.5-6.16,7.84-8.74,10.18Z"/>
      </g>
      <g id="Drop-157" data-name="Drop">
        <g id="Drop-158" data-name="Drop">
          <path class="cls-12" d="M1461.86,477.89c-1.97,3.68-3.88,5.89-5.85,8.33-6.97,8.6-10.41,12.91-11.71,16.66-1.98,5.73-2.42,15.85,4.13,21.3,7.41,6.18,20.22,3.4,24.97-3.35,2.43-3.46,4.28-10.42,2.48-20.92-1.47-8.56-5.83-17.57-10.26-31.82-.6,2.42-1.68,5.93-3.75,9.8Z"/>
        </g>
        <path class="cls-1" d="M1455.87,522.73c1.23,.13,3.07,.19,5.22-.28,1.44-.31,4.13-.93,6.68-3.19,.53-.47,3.03-2.76,4.08-6.7,.83-3.08,.36-5.63,.03-7.29-.37-1.86-.95-3.35-1.43-4.38-1.16,3.22-2.97,7.31-5.84,11.65-2.98,4.5-6.16,7.84-8.74,10.18Z"/>
      </g>
      <g id="Drop-159" data-name="Drop">
        <g id="Drop-160" data-name="Drop">
          <path class="cls-12" d="M1394.86,476.89c-1.97,3.68-3.88,5.89-5.85,8.33-6.97,8.6-10.41,12.91-11.71,16.66-1.98,5.73-2.42,15.85,4.13,21.3,7.41,6.18,20.22,3.4,24.97-3.35,2.43-3.46,4.28-10.42,2.48-20.92-1.47-8.56-5.83-17.57-10.26-31.82-.6,2.42-1.68,5.93-3.75,9.8Z"/>
        </g>
        <path class="cls-1" d="M1388.87,521.73c1.23,.13,3.07,.19,5.22-.28,1.44-.31,4.13-.93,6.68-3.19,.53-.47,3.03-2.76,4.08-6.7,.83-3.08,.36-5.63,.03-7.29-.37-1.86-.95-3.35-1.43-4.38-1.16,3.22-2.97,7.31-5.84,11.65-2.98,4.5-6.16,7.84-8.74,10.18Z"/>
      </g>
    </g>
    <g id="Drop-161" data-name="Drop">
      <g id="Drop-162" data-name="Drop">
        <path class="cls-12" d="M1527.86,474.89c-1.97,3.68-3.88,5.89-5.85,8.33-6.97,8.6-10.41,12.91-11.71,16.66-1.98,5.73-2.42,15.85,4.13,21.3,7.41,6.18,20.22,3.4,24.97-3.35,2.43-3.46,4.28-10.42,2.48-20.92-1.47-8.56-5.83-17.57-10.26-31.82-.6,2.42-1.68,5.93-3.75,9.8Z"/>
      </g>
      <path class="cls-1" d="M1521.87,519.73c1.23,.13,3.07,.19,5.22-.28,1.44-.31,4.13-.93,6.68-3.19,.53-.47,3.03-2.76,4.08-6.7,.83-3.08,.36-5.63,.03-7.29-.37-1.86-.95-3.35-1.43-4.38-1.16,3.22-2.97,7.31-5.84,11.65-2.98,4.5-6.16,7.84-8.74,10.18Z"/>
    </g>
    <g id="Drop-163" data-name="Drop">
      <g id="Drop-164" data-name="Drop">
        <path class="cls-12" d="M1461.86,477.89c-1.97,3.68-3.88,5.89-5.85,8.33-6.97,8.6-10.41,12.91-11.71,16.66-1.98,5.73-2.42,15.85,4.13,21.3,7.41,6.18,20.22,3.4,24.97-3.35,2.43-3.46,4.28-10.42,2.48-20.92-1.47-8.56-5.83-17.57-10.26-31.82-.6,2.42-1.68,5.93-3.75,9.8Z"/>
      </g>
      <path class="cls-1" d="M1455.87,522.73c1.23,.13,3.07,.19,5.22-.28,1.44-.31,4.13-.93,6.68-3.19,.53-.47,3.03-2.76,4.08-6.7,.83-3.08,.36-5.63,.03-7.29-.37-1.86-.95-3.35-1.43-4.38-1.16,3.22-2.97,7.31-5.84,11.65-2.98,4.5-6.16,7.84-8.74,10.18Z"/>
    </g>
    <g id="Drop-165" data-name="Drop">
      <g id="Drop-166" data-name="Drop">
        <path class="cls-12" d="M1394.86,476.89c-1.97,3.68-3.88,5.89-5.85,8.33-6.97,8.6-10.41,12.91-11.71,16.66-1.98,5.73-2.42,15.85,4.13,21.3,7.41,6.18,20.22,3.4,24.97-3.35,2.43-3.46,4.28-10.42,2.48-20.92-1.47-8.56-5.83-17.57-10.26-31.82-.6,2.42-1.68,5.93-3.75,9.8Z"/>
      </g>
      <path class="cls-1" d="M1388.87,521.73c1.23,.13,3.07,.19,5.22-.28,1.44-.31,4.13-.93,6.68-3.19,.53-.47,3.03-2.76,4.08-6.7,.83-3.08,.36-5.63,.03-7.29-.37-1.86-.95-3.35-1.43-4.38-1.16,3.22-2.97,7.31-5.84,11.65-2.98,4.5-6.16,7.84-8.74,10.18Z"/>
    </g>
  </g>
  <g id="Sunny"/>
</svg>