<?xml version="1.0" encoding="UTF-8"?><svg xmlns="http://www.w3.org/2000/svg" xmlns:xlink="http://www.w3.org/1999/xlink" viewBox="0 0 1920 1080"><defs><style>.v{fill:#fff;}.w{fill:url(#r);}.x{fill:url(#l);}.y{fill:url(#u);}.y,.a`{mix-blend-mode:lighten;}.aa{fill:#8ec1d1;}.ab{isolation:isolate;}.ac{fill:url(#m);}.ad{fill:url(#g);}.a`{fill:url(#t);opacity:.5;}.ae{fill:url(#i);}.af{fill:url(#s);}.ag{fill:url(#o);}.ah{fill:url(#q);}.ai{fill:url(#k);}</style><linearGradient id="g" x1="-1135.59" y1="-41.83" x2="-1131.91" y2="406.5" gradientTransform="translate(403 816) rotate(-180)" gradientUnits="userSpaceOnUse"><stop offset="0" stop-color="#ec6500"/><stop offset=".19" stop-color="#ec6804"/><stop offset=".39" stop-color="#ef7410"/><stop offset=".6" stop-color="#f28725"/><stop offset=".8" stop-color="#f8a241"/><stop offset="1" stop-color="#ffc466"/></linearGradient><linearGradient id="i" x1="955.58" y1="2.17" x2="964.47" y2="1084.84" gradientTransform="matrix(1, 0, 0, 1, 0, 0)" gradientUnits="userSpaceOnUse"><stop offset="0" stop-color="#ff9e00"/><stop offset="1" stop-color="#e75400"/></linearGradient><linearGradient id="k" x1="961.73" y1="1084.4" x2="959.1" y2="763.52" gradientTransform="matrix(1, 0, 0, 1, 0, 0)" gradientUnits="userSpaceOnUse"><stop offset="0" stop-color="#ef8b03"/><stop offset=".24" stop-color="#ed8506"/><stop offset=".55" stop-color="#e87410"/><stop offset=".9" stop-color="#df5821"/><stop offset="1" stop-color="#dd5027"/></linearGradient><linearGradient id="l" x1="961.27" y1="1085.92" x2="959.54" y2="874.71" gradientTransform="matrix(1, 0, 0, 1, 0, 0)" gradientUnits="userSpaceOnUse"><stop offset="0" stop-color="#8b3300"/><stop offset=".17" stop-color="#903202"/><stop offset=".4" stop-color="#a13208"/><stop offset=".66" stop-color="#bd3112"/><stop offset=".94" stop-color="#e33120"/><stop offset="1" stop-color="#ed3124"/></linearGradient><linearGradient id="m" x1="960.83" y1="1085.72" x2="959.8" y2="960.48" gradientTransform="matrix(1, 0, 0, 1, 0, 0)" gradientUnits="userSpaceOnUse"><stop offset="0" stop-color="#f15424"/><stop offset=".16" stop-color="#eb5122"/><stop offset=".37" stop-color="#da4a1c"/><stop offset=".62" stop-color="#be3f13"/><stop offset=".88" stop-color="#982f06"/><stop offset="1" stop-color="#842700"/></linearGradient><radialGradient id="o" cx="1398" cy="399" fx="1398" fy="399" r="141" gradientTransform="matrix(1, 0, 0, 1, 0, 0)" gradientUnits="userSpaceOnUse"><stop offset="0" stop-color="#fff"/><stop offset=".34" stop-color="#fff" stop-opacity=".58"/><stop offset=".51" stop-color="#fff" stop-opacity=".38"/><stop offset=".68" stop-color="#fff" stop-opacity=".23"/><stop offset=".89" stop-color="#fff" stop-opacity=".06"/><stop offset="1" stop-color="#fff" stop-opacity="0"/></radialGradient><linearGradient id="q" x1="-695.59" y1="38.17" x2="-691.91" y2="486.5" gradientTransform="translate(403 816) rotate(-180)" gradientUnits="userSpaceOnUse"><stop offset="0" stop-color="#ef6c03"/><stop offset=".26" stop-color="#ef6e05"/><stop offset=".45" stop-color="#f1770f"/><stop offset=".62" stop-color="#f3851f"/><stop offset=".77" stop-color="#f79935"/><stop offset=".92" stop-color="#fbb252"/><stop offset="1" stop-color="#ffc466"/></linearGradient><linearGradient id="r" x1="39.41" y1="12.14" x2="42.98" y2="446.85" gradientTransform="translate(403 816) rotate(-180)" gradientUnits="userSpaceOnUse"><stop offset="0" stop-color="#ee6900"/><stop offset=".19" stop-color="#ee6c04"/><stop offset=".39" stop-color="#f07811"/><stop offset=".6" stop-color="#f48c27"/><stop offset=".81" stop-color="#f9a645"/><stop offset="1" stop-color="#ffc466"/></linearGradient><linearGradient id="s" x1="-345.59" y1="-42.25" x2="-343.25" y2="243.1" gradientTransform="translate(403 816) rotate(-180)" gradientUnits="userSpaceOnUse"><stop offset="0" stop-color="#ed6600"/><stop offset=".17" stop-color="#ed6a05"/><stop offset=".39" stop-color="#f07814"/><stop offset=".62" stop-color="#f58f2d"/><stop offset=".87" stop-color="#fbaf50"/><stop offset="1" stop-color="#ffc466"/></linearGradient><linearGradient id="t" x1="1459" y1="443.36" x2="1495.15" y2="503.8" gradientTransform="matrix(1, 0, 0, 1, 0, 0)" gradientUnits="userSpaceOnUse"><stop offset="0" stop-color="#fff"/><stop offset=".04" stop-color="#fff7ec"/><stop offset=".12" stop-color="#ffeac8"/><stop offset=".21" stop-color="#ffdeaa"/><stop offset=".31" stop-color="#ffd491"/><stop offset=".42" stop-color="#ffcd7d"/><stop offset=".54" stop-color="#ffc770"/><stop offset=".7" stop-color="#ffc468"/><stop offset="1" stop-color="#ffc466"/></linearGradient><linearGradient id="u" x1="995.85" y1="656.66" x2="1195.85" y2="432.66" gradientTransform="matrix(1, 0, 0, 1, 0, 0)" xlink:href="#q"/></defs><g class="ab"><g id="a"/><g id="b"/><g id="c"><g id="d"><g id="e"><path class="aa" d="M1710.45,303.13c-1.38,3.81-2.91,6.2-4.48,8.81-5.52,9.23-8.23,13.85-8.95,17.63-1.1,5.77-.1,15.55,7,19.87,8.03,4.89,20.02,.42,23.64-6.72,1.86-3.66,2.66-10.6-.56-20.43-2.63-8.01-8.12-16.04-14.41-29.1-.23,2.4-.78,5.93-2.24,9.93Z"/></g><path class="v" d="M1711,347c1.21-.05,2.99-.25,5-1,1.34-.5,3.86-1.48,6-4,.44-.52,2.54-3.08,3-7,.36-3.07-.45-5.46-1-7-.62-1.74-1.39-3.08-2-4-.66,3.25-1.83,7.43-4,12-2.24,4.73-4.84,8.39-7,11Z"/></g></g><g id="f"><polygon class="ad" points="1538.6 859 1176.2 859 1357.4 633.61 1538.6 408.23 1719.8 633.61 1901 859 1538.6 859"/><g id="h"><rect class="ae" width="1920" height="1080"/></g><g id="j"><path class="ai" d="M.5,770.5c48.73,19.92,123.23,46.42,217,64,52.67,9.87,183.08,30.36,432,2,220.12-25.08,194.48-49.8,331-58,226.92-13.63,296.91,54.72,525,64,97.72,3.97,239.78-2.27,415-54v291H.5v-309Z"/><path class="x" d="M1,925c38.58-10.59,94.99-24.21,164-34,46.01-6.53,239.7-31.53,521,20,197.78,36.23,232.76,72.53,357,58,117.15-13.7,102.38-47.89,219-67,212.58-34.84,308.39,71.09,542,32,51.84-8.67,92.76-21.52,117-30-.33,58.67-.67,117.33-1,176H0c.33-51.67,.67-103.33,1-155Z"/><path class="ac" d="M1,968c56.77,18.68,143.42,41.19,250,44,169.01,4.46,203.32-45.46,380-46,77.67-.24,45.43,9.49,334,39,122.47,12.52,173.84,15.43,237,12,109.54-5.95,183.37-27.11,227-37,105.75-23.98,264.21-34.01,491,32v67H1v-111Z"/></g><g id="n"><circle class="ag" cx="1398" cy="399" r="141"/><circle class="v" cx="1398" cy="399" r="55"/></g><g id="p"><polygon class="ah" points="1098.6 779 736.2 779 917.4 553.61 1098.6 328.23 1279.8 553.61 1461 779 1098.6 779"/><polygon class="w" points="363.6 805 12.2 805 187.9 586.45 363.6 367.91 539.3 586.45 715 805 363.6 805"/><polygon class="af" points="748.6 859 517.94 859 633.27 715.55 748.6 572.09 863.93 715.55 979.26 859 748.6 859"/><polygon class="ad" points="1538.6 859 1176.2 859 1357.4 633.61 1538.6 408.23 1719.8 633.61 1901 859 1538.6 859"/><path class="a`" d="M1538.13,408.23l-117.92,146.66c26.45-12.15,59-32.57,85.81-56.88,23.68-21.48,40.76-44.07,52.99-63.82l-20.87-25.96Z"/><path class="y" d="M1279.06,553.94l-.26-.32-181.2-225.39-64.52,80.25c49.06,85.61,140.66,143.69,245.98,145.46Z"/></g></g></g></svg>